<svg width="35" height="36" viewBox="0 0 35 36" fill="none" xmlns="http://www.w3.org/2000/svg">
<g clip-path="url(#clip0_1_1373)">
<path d="M16.6387 0.34375L1.32617 6.90625C0.369139 7.31641 -0.164064 8.3418 0.0478503 9.35351C0.259764 10.3652 1.14844 11.1035 2.1875 11.1035V11.6504C2.1875 12.5596 2.91894 13.291 3.82812 13.291H31.1719C32.0811 13.291 32.8125 12.5596 32.8125 11.6504V11.1035C33.8516 11.1035 34.7471 10.3721 34.9522 9.35351C35.1572 8.33496 34.624 7.30957 33.6738 6.90625L18.3613 0.34375C17.8076 0.111328 17.1855 0.111328 16.6387 0.34375ZM8.75 15.4785H4.375V28.8975C4.33398 28.918 4.29297 28.9453 4.25195 28.9727L0.970702 31.1602C0.170897 31.6934 -0.191408 32.6914 0.0888659 33.6143C0.369139 34.5371 1.22363 35.166 2.1875 35.166H32.8125C33.7764 35.166 34.624 34.5371 34.9043 33.6143C35.1846 32.6914 34.8291 31.6934 34.0225 31.1602L30.7412 28.9727C30.7002 28.9453 30.6592 28.9248 30.6182 28.8975V15.4785H26.25V28.6035H23.5156V15.4785H19.1406V28.6035H15.8594V15.4785H11.4844V28.6035H8.75V15.4785ZM17.5 4.54102C18.0802 4.54102 18.6366 4.77148 19.0468 5.18172C19.457 5.59196 19.6875 6.14835 19.6875 6.72852C19.6875 7.30868 19.457 7.86508 19.0468 8.27531C18.6366 8.68555 18.0802 8.91602 17.5 8.91602C16.9198 8.91602 16.3634 8.68555 15.9532 8.27531C15.543 7.86508 15.3125 7.30868 15.3125 6.72852C15.3125 6.14835 15.543 5.59196 15.9532 5.18172C16.3634 4.77148 16.9198 4.54102 17.5 4.54102Z" fill="#B9131A"/>
</g>
<defs>
<clipPath id="clip0_1_1373">
<rect width="35" height="35" fill="white" transform="translate(0 0.166016)"/>
</clipPath>
</defs>
</svg>
