<svg width="45" height="36" viewBox="0 0 45 36" fill="none" xmlns="http://www.w3.org/2000/svg">
<g clip-path="url(#clip0_1_1386)">
<path d="M11.4063 4.54102C11.4063 2.12793 13.3962 0.166016 15.8438 0.166016H40.25C42.6976 0.166016 44.6875 2.12793 44.6875 4.54102V24.2285C44.6875 26.6416 42.6976 28.6035 40.25 28.6035H23.6648C22.8467 26.8604 21.5917 25.3564 20.0316 24.2285H26.9375V22.041C26.9375 20.8311 27.929 19.8535 29.1563 19.8535H33.5938C34.821 19.8535 35.8125 20.8311 35.8125 22.041V24.2285H40.25V4.54102H15.8438V7.89746C14.5402 7.15234 13.0218 6.72852 11.4063 6.72852V4.54102ZM11.4063 8.91602C12.2804 8.91602 13.1459 9.08576 13.9535 9.41556C14.7611 9.74535 15.4948 10.2287 16.1129 10.8381C16.731 11.4475 17.2213 12.171 17.5558 12.9672C17.8903 13.7634 18.0625 14.6167 18.0625 15.4785C18.0625 16.3403 17.8903 17.1937 17.5558 17.9899C17.2213 18.7861 16.731 19.5095 16.1129 20.1189C15.4948 20.7283 14.7611 21.2117 13.9535 21.5415C13.1459 21.8713 12.2804 22.041 11.4063 22.041C10.5321 22.041 9.66659 21.8713 8.85901 21.5415C8.05144 21.2117 7.31766 20.7283 6.69957 20.1189C6.08148 19.5095 5.59119 18.7861 5.25668 17.9899C4.92217 17.1937 4.75 16.3403 4.75 15.4785C4.75 14.6167 4.92217 13.7634 5.25668 12.9672C5.59119 12.171 6.08148 11.4475 6.69957 10.8381C7.31766 10.2287 8.05144 9.74535 8.85901 9.41556C9.66659 9.08576 10.5321 8.91602 11.4063 8.91602ZM9.55498 24.2285H13.2506C18.3606 24.2285 22.5 28.3096 22.5 33.3408C22.5 34.3457 21.6749 35.166 20.6487 35.166H2.16377C1.1376 35.166 0.3125 34.3525 0.3125 33.3408C0.3125 28.3096 4.45186 24.2285 9.55498 24.2285Z" fill="#B9131A"/>
</g>
<defs>
<clipPath id="clip0_1_1386">
<rect width="44.375" height="35" fill="white" transform="translate(0.3125 0.166016)"/>
</clipPath>
</defs>
</svg>
