<svg width="45" height="36" viewBox="0 0 45 36" fill="none" xmlns="http://www.w3.org/2000/svg">
<g clip-path="url(#clip0_1_1398)">
<path d="M22.5 2.35352C21.9444 2.35352 21.3957 2.44922 20.8744 2.63379L1.63458 9.55859C0.982969 9.79785 0.550845 10.4131 0.550845 11.1035C0.550845 11.7939 0.982969 12.4092 1.63458 12.6484L5.60601 14.0771C4.48111 15.8408 3.84322 17.9258 3.84322 20.1201V22.041C3.84322 23.9824 3.10243 25.9854 2.31364 27.5645C1.86779 28.4531 1.36022 29.3281 0.770337 30.1348C0.550845 30.4287 0.489113 30.8115 0.612577 31.1602C0.736041 31.5088 1.02412 31.7686 1.3808 31.8574L5.77063 32.9512C6.05871 33.0264 6.36737 32.9717 6.62116 32.8145C6.87494 32.6572 7.05328 32.3975 7.10815 32.1035C7.69804 29.1777 7.4031 26.5527 6.96411 24.6729C6.74462 23.7021 6.44968 22.7109 6.03813 21.8018V20.1201C6.03813 18.0557 6.73776 16.1074 7.95182 14.5488C8.83665 13.4893 9.98212 12.6348 11.3265 12.1084L22.0953 7.89062C22.6578 7.67187 23.2957 7.94531 23.5151 8.50586C23.7346 9.06641 23.4603 9.70215 22.8978 9.9209L12.129 14.1387C11.2785 14.4736 10.5309 14.9863 9.92039 15.6152L20.8675 19.5527C21.3888 19.7373 21.9375 19.833 22.4931 19.833C23.0487 19.833 23.5975 19.7373 24.1187 19.5527L43.3654 12.6484C44.017 12.416 44.4491 11.7939 44.4491 11.1035C44.4491 10.4131 44.017 9.79785 43.3654 9.55859L24.1256 2.63379C23.6043 2.44922 23.0556 2.35352 22.5 2.35352ZM9.33051 28.0566C9.33051 30.4697 15.2293 32.9785 22.5 32.9785C29.7707 32.9785 35.6695 30.4697 35.6695 28.0566L34.62 18.1172L24.8664 21.6309C24.105 21.9043 23.3025 22.041 22.5 22.041C21.6975 22.041 20.8881 21.9043 20.1336 21.6309L10.3799 18.1172L9.33051 28.0566Z" fill="#B9131A"/>
</g>
<defs>
<clipPath id="clip0_1_1398">
<rect width="43.8983" height="35" fill="white" transform="translate(0.550842 0.166016)"/>
</clipPath>
</defs>
</svg>
