<svg width="146" height="30" viewBox="0 0 146 30" fill="none" xmlns="http://www.w3.org/2000/svg">
<path d="M86.721 23.1689H85.8178C85.6705 23.1689 85.5559 23.2848 85.5559 23.4342V24.324C85.5559 24.4704 85.6705 24.5811 85.8178 24.5811H86.721C86.8687 24.5811 86.9844 24.4704 86.9844 24.324V23.4342C86.9844 23.2842 86.8687 23.1689 86.721 23.1689ZM91.4892 22.4307H93.5177V15.8611H91.4892V22.4307ZM89.2375 15.8611C88.7103 15.7881 87.7745 15.7881 86.4199 15.7881C85.0669 15.7881 84.1285 15.7881 83.6038 15.8611C82.8927 15.9677 82.4408 16.3432 82.2503 16.9753C82.1362 17.3829 82.1005 18.0875 82.1005 19.0905C82.1005 20.1696 82.1362 20.9088 82.2503 21.3165C82.4036 21.9501 82.8927 22.32 83.6038 22.3914C84.1285 22.4669 85.0669 22.5032 86.4199 22.5032C87.7745 22.5032 88.7103 22.4674 89.2375 22.4302C89.9497 22.2787 90.4011 21.9501 90.587 21.316C90.6991 20.8695 90.7398 20.1691 90.7398 19.1257C90.7398 18.1232 90.6991 17.3819 90.587 16.9743C90.4011 16.3432 89.9497 15.9677 89.2375 15.8611ZM88.7857 20.1696C88.7103 20.3548 88.6716 20.5022 88.5223 20.5762C88.4123 20.6869 88.2202 20.7236 87.9599 20.7583C87.6976 20.7991 87.206 20.7991 86.4199 20.7991C85.5946 20.7991 85.0669 20.7991 84.7673 20.7583C84.3919 20.7236 84.1285 20.5022 84.0908 20.1696C84.0175 20.018 84.0175 19.7221 84.0175 19.3135C84.0175 18.6456 84.0552 18.1972 84.1285 17.9773C84.2044 17.7533 84.3542 17.6049 84.5799 17.5666C84.805 17.4911 85.4062 17.459 86.4199 17.459C87.3221 17.459 87.8855 17.4911 88.1097 17.4911C88.3359 17.5666 88.5228 17.6426 88.5972 17.789C88.7103 17.9038 88.748 18.0492 88.7857 18.2691C88.8244 18.4972 88.8244 18.8283 88.8244 19.3135C88.8244 19.7221 88.8244 20.018 88.7857 20.1696ZM140.39 14.933C140.804 14.933 141.327 15.1182 141.781 15.1182C142.231 15.1182 142.604 14.9708 142.907 14.7815C142.907 14.7815 142.455 14.3382 142.304 14.1928C142.117 14.3035 141.818 14.4121 141.517 14.4121C141.103 14.4121 140.614 14.1928 140.2 14.1928C139.788 14.1928 139.34 14.3035 139.039 14.4499L139.636 15.0795C139.827 14.9713 140.128 14.933 140.39 14.933ZM79.3221 18.1977H74.965V15.8611H72.9731V22.4307H74.965V20.0532H79.3221V22.4307H81.314V15.8611H79.3221V18.1977ZM84.6935 15.008L86.3822 14.6346L88.072 15.008L88.2584 14.6004L86.3817 13.7453L84.4658 14.6004L84.6935 15.008ZM111.547 23.1689H110.642C110.494 23.1689 110.382 23.2848 110.382 23.4342V24.324C110.382 24.4704 110.494 24.5811 110.642 24.5811H111.547C111.696 24.5811 111.81 24.4704 111.81 24.324V23.4342C111.81 23.2842 111.696 23.1689 111.547 23.1689ZM109.781 19.7941H114.85V18.3482H109.781V17.4187H114.85V15.8611H107.902V22.4307H114.887V20.8343H109.781V19.7941V19.7941ZM115.413 17.5309H118.23V22.4307H120.222V17.5309H123.034V15.8611H115.413V17.5309H115.413ZM143.021 15.8611L141.029 18.4977L139 15.8611H136.483L140.091 20.091V22.4307H142.044V20.091L145.5 15.8611H143.021V15.8611ZM109.288 14.6004L109.519 15.008L111.207 14.6346L112.898 15.008L113.085 14.6004L111.206 13.7453L109.288 14.6004ZM130.89 20.1288L129.011 15.8611H125.517V22.4307H127.432L127.357 17.4911H127.731L130.099 22.4307H131.675L134.042 17.4911H134.382L134.343 22.4307H136.222V15.8611H132.763L130.89 20.1288ZM104.974 22.4307H107.001V15.8611H104.974V22.4307ZM100.314 20.7583H99.9385L97.6466 15.8605H95.5468L98.6649 22.4302H101.592L104.673 15.8605H102.568L100.314 20.7583ZM74.9553 11.6168H77.8045L78.2034 12.4102H79.6868L77.4011 7.89249H75.3557L73.0715 12.4102H74.5972L74.9553 11.6168ZM76.2391 8.92561H76.5218L77.3634 10.6276H75.4372L76.2391 8.92561ZM100.373 12.4102L100.732 11.6168H103.621L103.979 12.4102H105.504L103.217 7.89249H101.174L98.8519 12.4102H100.373ZM102.057 8.92561H102.338L103.141 10.6276H101.214L102.057 8.92561ZM97.7679 12.4102L99.8927 7.89249H98.449L96.8876 11.2623H96.6441L95.0424 7.89249H93.5982L95.7612 12.4102H97.7679ZM85.94 12.4102V7.89249H84.5778L84.6176 11.2623H84.4556L82.2146 7.89249H79.8871V12.4102H81.2105V9.04193H81.3328L83.615 12.4102H85.94ZM101.539 7.21955C101.735 7.29812 101.937 7.37618 102.216 7.37618C102.54 7.37618 102.819 7.29863 102.981 7.10221C103.058 7.0216 103.14 6.86396 103.18 6.70376H102.777C102.74 6.78335 102.659 6.86396 102.577 6.90426C102.496 6.94508 102.375 6.94508 102.216 6.94508C102.018 6.94508 101.856 6.90426 101.777 6.86447C101.697 6.86447 101.658 6.78386 101.616 6.70427H101.214C101.255 6.94457 101.375 7.10221 101.539 7.21955ZM109.432 12.4102H111.719V7.89249H110.394V11.2623H110.275L107.99 7.89249H105.703V12.4102H107.027L106.989 9.04193H107.149L109.432 12.4102ZM92.2747 12.4102V7.89249H90.911V9.47763H87.9059V7.89249H86.5432V12.4102H87.9059V10.7449H90.911V12.4102H92.2747Z" fill="#222F6E"/>
<path d="M15.786 20.4121L25.0142 1.45056H18.2959L12.7264 14.3057H12.6653L7.15178 1.45056H0.618408L10.8675 22.8334C12.542 21.8258 14.1655 20.9998 15.786 20.4121ZM31.3668 17.2642C36.459 17.4438 42.757 19.4606 47.3698 20.3503C48.5109 20.5886 49.5282 20.7656 50.4284 20.7656C52.3413 20.8212 60.3724 20.3503 60.3724 13.421C60.3724 7.84572 50.8477 8.61916 47.3703 7.31972C46.5899 7.01871 46.108 6.60546 46.108 6.01314C46.108 5.12746 46.5894 4.59432 47.3703 4.23361C48.0305 3.99944 48.868 3.87802 49.706 3.87802C52.0453 3.87802 53.3046 4.77084 53.4819 6.60546H59.7162C59.4177 2.45511 54.865 0.918945 50.3627 0.918945C49.2287 0.918945 48.271 0.978637 47.3703 1.09649C43.5333 1.50821 41.4916 2.81224 40.5349 4.23412V1.45056H34.3021V11.9394C34.3021 15.1373 33.2847 16.2061 30.1029 16.2061C26.8675 16.2061 25.9098 15.1368 25.9098 11.9394V4.23361L20.1584 15.8469C20.1584 17.0296 20.756 17.9168 22.2562 18.5713C24.8879 17.6795 27.9485 17.1494 31.3668 17.2642ZM40.5344 9.0972C41.7957 11.0471 44.6098 11.6971 47.3698 12.0527C50.784 12.5879 54.1391 12.7042 54.1391 14.6036C54.1391 15.9031 52.9399 16.6765 50.1263 16.6765C49.2282 16.6765 48.2119 16.6127 47.3698 16.3148C46.3484 15.9633 45.5731 15.2516 45.5731 13.77H40.5344V9.0972V9.0972Z" fill="#222F6E"/>
<path fill-rule="evenodd" clip-rule="evenodd" d="M54.6232 22.0063C45.8697 25.5608 27.0506 9.38743 7.09131 29.9999H14.5238C27.1667 15.3739 41.0765 24.318 51.0271 23.9001C55.64 23.7226 58.0414 20.0508 57.9787 20.0508C57.9222 20.0513 56.9599 21.1161 54.6232 22.0063ZM19.2589 29.9999H25.966C26.751 28.4602 30.103 23.9007 43.6522 24.5501C47.5483 24.7312 47.9691 24.5501 47.9691 24.5501C47.9691 24.5501 46.0546 24.3756 44.4367 24.0777C27.6517 21.0584 20.8213 28.0464 19.2589 29.9999ZM30.1657 29.9999H36.4591C37.3593 26.3939 45.8697 25.4399 45.8697 25.4399C45.8697 25.4399 34.6598 24.9098 30.1657 29.9999Z" fill="#BA141A"/>
</svg>
