<svg width="16" height="12" viewBox="0 0 16 12" fill="none" xmlns="http://www.w3.org/2000/svg">
<g clip-path="url(#clip0_1_1354)">
<path d="M11.4155 1.08093L0.631317 11.6261L14.6846 10.6081L11.6863 7.59241L11.4155 1.08093Z" fill="#FFEBD9"/>
<path d="M14.791 10.8386C14.762 10.8482 14.733 10.8578 14.704 10.8578L0.650662 11.8758C0.54427 11.8854 0.447551 11.8278 0.399192 11.7317C0.350832 11.6357 0.379848 11.5204 0.457223 11.4436L11.2414 0.908067C11.3091 0.840839 11.4155 0.812027 11.5122 0.850443C11.6089 0.888859 11.667 0.975295 11.6766 1.07133L11.9378 7.47717L14.8684 10.4256C14.9361 10.4928 14.9554 10.5985 14.9264 10.6945C14.8974 10.7617 14.849 10.8193 14.791 10.8386ZM1.30835 11.3284L14.1236 10.4064L11.5122 7.77489C11.4639 7.72687 11.4445 7.66925 11.4348 7.61163L11.193 1.67638L1.30835 11.3284Z" fill="#4E4E8C"/>
<path d="M1.02786 11.4148L15.7195 6.23826L11.2607 4.56717L1.02786 11.4148Z" fill="#FFEBD9"/>
<path d="M15.8356 6.48797C15.8259 6.48797 15.8259 6.49757 15.8162 6.49757L1.11491 11.6741C0.989176 11.7221 0.844097 11.6645 0.786065 11.5396C0.728034 11.4148 0.766721 11.2707 0.873113 11.1939L11.106 4.34629C11.1834 4.29827 11.2704 4.28866 11.3575 4.31748L15.8259 5.98856C15.9323 6.02698 16 6.13262 16 6.24787C15.9903 6.35351 15.9323 6.43995 15.8356 6.48797ZM2.95257 10.4544L14.9361 6.23827L11.2898 4.8649L2.95257 10.4544Z" fill="#4E4E8C"/>
</g>
<defs>
<clipPath id="clip0_1_1354">
<rect width="15.6201" height="11.0445" fill="white" transform="translate(0.379852 0.831238)"/>
</clipPath>
</defs>
</svg>
