<svg width="15" height="13" viewBox="0 0 15 13" fill="none" xmlns="http://www.w3.org/2000/svg">
<path d="M14.4697 3.11548C14.3865 3.43358 14.1595 3.64566 13.9249 3.85773C11.1555 6.3117 8.38616 8.77325 5.61678 11.2272C5.52598 11.3105 5.40491 11.3711 5.29141 11.4014C3.95968 11.7801 2.62796 12.1513 1.3038 12.5224C1.27353 12.53 1.24326 12.5451 1.213 12.5603C1.0995 12.5527 0.993565 12.5451 0.880066 12.5375C0.887633 12.4239 0.895199 12.3179 0.902766 12.2043C1.03897 11.8862 1.18273 11.5605 1.31893 11.2424C1.7351 10.235 2.15126 9.23526 2.56742 8.22792C2.59769 8.15218 2.65822 8.06887 2.71876 8.01585C5.55624 5.49371 8.4013 2.97157 11.2388 0.441855C11.4204 0.282801 11.6247 0.191913 11.8592 0.146469C11.9576 0.154043 12.0635 0.161617 12.1619 0.161617C12.4646 0.237357 12.684 0.441855 12.8807 0.676649C13.2666 1.12351 13.6601 1.57038 14.0611 2.00967C14.273 2.24447 14.4622 2.47926 14.5 2.80494C14.4773 2.91098 14.4773 3.00944 14.4697 3.11548ZM4.32288 9.47763C4.56501 9.49278 4.77688 9.50035 4.98875 9.52308C5.08711 9.53065 5.16278 9.50793 5.23845 9.43976C7.05444 7.81893 8.87799 6.20567 10.694 4.5924C10.7318 4.56211 10.7621 4.53181 10.7924 4.50152C10.5351 4.21371 10.2854 3.93347 10.0357 3.64566C10.0281 3.65323 10.0054 3.66838 9.99029 3.67595C8.13646 5.32708 6.29021 6.97064 4.43638 8.6142C4.40612 8.63692 4.37585 8.68236 4.36828 8.71266C4.35315 8.9626 4.33802 9.20497 4.32288 9.47763ZM12.858 4.11524C13.1683 3.84258 13.4785 3.56992 13.7812 3.29725C14.0233 3.07761 14.0384 2.77465 13.819 2.53228C13.3347 1.97938 12.8429 1.42647 12.3511 0.881147C12.1165 0.623631 11.829 0.600909 11.5717 0.828129C11.2917 1.07807 11.0042 1.32801 10.7243 1.57795C10.7016 1.60068 10.6789 1.6234 10.6637 1.64612C11.3977 2.47169 12.1241 3.28968 12.858 4.11524ZM4.98875 10.0305C4.91308 10.023 4.84498 10.0154 4.77688 10.0078C4.58015 9.99267 4.39098 9.97752 4.19425 9.96237C3.88402 9.93207 3.82349 9.87148 3.83105 9.55337C3.83862 9.33373 3.84619 9.11408 3.85375 8.89444C3.85375 8.84899 3.85375 8.80355 3.84618 8.7581C3.54352 8.68994 3.25599 8.62935 2.96846 8.56118C2.69606 9.22012 2.42366 9.87148 2.16639 10.4925C2.35556 10.6516 2.53716 10.7804 2.68092 10.9394C2.82469 11.106 2.93062 11.303 3.05926 11.4999C3.69485 11.3181 4.35315 11.1363 5.00388 10.947C5.03415 10.9394 5.06441 10.8712 5.06441 10.8334C5.04171 10.5759 5.01145 10.3108 4.98875 10.0305ZM3.38462 8.12946C3.56622 8.16733 3.74025 8.19763 3.91428 8.25065C4.01265 8.28094 4.07318 8.25822 4.14885 8.19005C5.96484 6.57679 7.78083 4.95596 9.60439 3.3427C9.63466 3.3124 9.66492 3.2821 9.69519 3.25938C9.56656 3.11548 9.44549 2.97914 9.33199 2.85039C7.34953 4.59998 5.37464 6.35715 3.38462 8.12946ZM5.55624 10.5759C7.54627 8.81112 9.52116 7.05395 11.496 5.29679C11.3825 5.16803 11.2615 5.0317 11.1177 4.87264C11.095 4.90294 11.0723 4.94081 11.042 4.9711C9.22606 6.58437 7.41007 8.19763 5.58651 9.81846C5.56381 9.84118 5.54111 9.85633 5.51841 9.87905C5.50328 9.90178 5.48814 9.93207 5.48814 9.95479C5.51084 10.1517 5.53354 10.3638 5.55624 10.5759ZM9.74059 2.48683C10.4594 3.29725 11.1858 4.12282 11.9046 4.92566C12.0787 4.77418 12.2603 4.60755 12.4419 4.4485C11.723 3.63808 10.9967 2.82009 10.2778 2.00967C10.0962 2.16873 9.91462 2.33535 9.74059 2.48683ZM1.5762 11.9165C1.91669 11.8256 2.21936 11.7347 2.53716 11.6514C2.41609 11.3636 2.23449 11.1515 1.96209 11C1.83346 11.2954 1.7124 11.5908 1.5762 11.9165Z" fill="#4E4E8C"/>
<path d="M4.32306 9.47742C4.33819 9.20475 4.35333 8.96239 4.36846 8.71245C4.36846 8.67458 4.40629 8.6367 4.43656 8.61398C6.29038 6.97043 8.13664 5.32687 9.99046 3.68331C10.0056 3.66816 10.0207 3.66059 10.0359 3.65302C10.2856 3.94083 10.5353 4.22106 10.7925 4.50888C10.7623 4.5316 10.732 4.56947 10.6942 4.59976C8.8706 6.21303 7.05461 7.83386 5.23862 9.44712C5.16296 9.51529 5.08729 9.53801 4.98892 9.53044C4.77706 9.50014 4.56519 9.49257 4.32306 9.47742Z" fill="#FFEBD9"/>
<path d="M12.858 4.11504C12.1241 3.2819 11.3977 2.46391 10.6637 1.63835C10.6789 1.61562 10.7016 1.5929 10.7243 1.57018C11.0042 1.32024 11.2842 1.0703 11.5717 0.820354C11.829 0.593134 12.1241 0.608282 12.3511 0.873372C12.8429 1.42627 13.3272 1.97918 13.819 2.5245C14.0384 2.76687 14.0233 3.06983 13.7812 3.28948C13.4785 3.56971 13.1683 3.84238 12.858 4.11504Z" fill="#FFEBD9"/>
<path d="M4.98915 10.0308C5.01941 10.311 5.04968 10.5761 5.07238 10.8412C5.07238 10.879 5.04211 10.9396 5.01185 10.9548C4.36112 11.1441 3.70282 11.3259 3.06722 11.5077C2.93859 11.3108 2.83266 11.1063 2.68889 10.9472C2.54513 10.7882 2.36353 10.6594 2.17436 10.5003C2.43163 9.87927 2.70403 9.22791 2.97642 8.56897C3.27152 8.63714 3.55906 8.69773 3.85415 8.76589C3.85415 8.81134 3.86172 8.85678 3.86172 8.90223C3.85415 9.12187 3.84659 9.34152 3.83902 9.56116C3.83145 9.87927 3.88442 9.93986 4.20222 9.97016C4.39895 9.98531 4.58812 10.0005 4.78485 10.0156C4.84538 10.0156 4.90592 10.0232 4.98915 10.0308Z" fill="#FFEBD9"/>
<path d="M3.38495 8.12937C5.37497 6.36463 7.34986 4.60746 9.33232 2.8503C9.44582 2.97905 9.56689 3.11539 9.69552 3.25929C9.66525 3.28201 9.63498 3.31231 9.60472 3.34261C7.78873 4.95587 5.96517 6.56913 4.14918 8.18996C4.07351 8.25813 4.01298 8.28085 3.91461 8.25056C3.74058 8.19754 3.56655 8.16724 3.38495 8.12937Z" fill="#FFEBD9"/>
<path d="M5.55637 10.5761C5.53367 10.364 5.51097 10.1595 5.48827 9.94745C5.48827 9.92473 5.5034 9.89443 5.51853 9.87171C5.53367 9.84899 5.56393 9.83384 5.58663 9.81112C7.40262 8.19785 9.22618 6.58459 11.0422 4.96376C11.0724 4.93346 11.0951 4.89559 11.1178 4.8653C11.2616 5.02435 11.3827 5.16068 11.4962 5.28944C9.52128 7.04661 7.54639 8.80377 5.55637 10.5761Z" fill="#FFEBD9"/>
<path d="M9.74063 2.48687C9.91466 2.33539 10.0963 2.16876 10.2779 2.0097C10.9967 2.82012 11.7231 3.64569 12.4419 4.44853C12.2679 4.60759 12.0787 4.76664 11.9047 4.92569C11.1859 4.11528 10.4595 3.29728 9.74063 2.48687Z" fill="#FFEBD9"/>
<path d="M1.57625 11.9165C1.71245 11.5909 1.83351 11.2955 1.95458 10.9925C2.22698 11.144 2.41614 11.3561 2.52964 11.6439C2.21941 11.7348 1.91675 11.8256 1.57625 11.9165Z" fill="#FFEBD9"/>
</svg>
