<svg width="45" height="36" viewBox="0 0 45 36" fill="none" xmlns="http://www.w3.org/2000/svg">
<g clip-path="url(#clip0_1_1379)">
<path d="M22.7338 5.99023L16.0788 11.3496C14.9719 12.2383 14.7588 13.8379 15.5975 14.9795C16.4844 16.1963 18.21 16.4355 19.3994 15.5127L26.2263 10.2354C26.7075 9.86621 27.395 9.94824 27.7731 10.4268C28.1513 10.9053 28.0619 11.5889 27.5806 11.9648L26.1438 13.0723L35.7 21.8223V8.91602H35.6519L35.3838 8.74512L30.3925 5.56641C29.3406 4.89648 28.11 4.54102 26.8588 4.54102C25.36 4.54102 23.9025 5.05371 22.7338 5.99023ZM24.3013 14.4941L20.7469 17.2422C18.5813 18.9238 15.4394 18.4863 13.8169 16.2715C12.2906 14.1865 12.6756 11.2744 14.69 9.6543L20.41 5.05371C19.6125 4.71875 18.7531 4.54785 17.88 4.54785C16.5875 4.54102 15.3294 4.92383 14.25 5.63477L9.3 8.91602V24.2285H11.2388L17.5225 29.9297C18.87 31.1533 20.9531 31.0576 22.1838 29.7178C22.5619 29.3008 22.8163 28.8154 22.9469 28.3096L24.1156 29.376C25.4563 30.5996 27.5462 30.5107 28.7769 29.1777C29.0862 28.8428 29.3131 28.4531 29.4575 28.0498C30.7913 28.9385 32.6062 28.7539 33.7269 27.5371C34.9575 26.2041 34.8681 24.126 33.5275 22.9023L24.3013 14.4941ZM1.6 8.91602C0.995 8.91602 0.5 9.4082 0.5 10.0098V24.2285C0.5 25.4385 1.48312 26.416 2.7 26.416H4.9C6.11688 26.416 7.1 25.4385 7.1 24.2285V8.91602H1.6ZM3.8 22.041C4.09174 22.041 4.37153 22.1562 4.57782 22.3614C4.78411 22.5665 4.9 22.8447 4.9 23.1348C4.9 23.4248 4.78411 23.703 4.57782 23.9082C4.37153 24.1133 4.09174 24.2285 3.8 24.2285C3.50826 24.2285 3.22847 24.1133 3.02218 23.9082C2.81589 23.703 2.7 23.4248 2.7 23.1348C2.7 22.8447 2.81589 22.5665 3.02218 22.3614C3.22847 22.1562 3.50826 22.041 3.8 22.041ZM37.9 8.91602V24.2285C37.9 25.4385 38.8831 26.416 40.1 26.416H42.3C43.5169 26.416 44.5 25.4385 44.5 24.2285V10.0098C44.5 9.4082 44.005 8.91602 43.4 8.91602H37.9ZM40.1 23.1348C40.1 22.8447 40.2159 22.5665 40.4222 22.3614C40.6285 22.1562 40.9083 22.041 41.2 22.041C41.4917 22.041 41.7715 22.1562 41.9778 22.3614C42.1841 22.5665 42.3 22.8447 42.3 23.1348C42.3 23.4248 42.1841 23.703 41.9778 23.9082C41.7715 24.1133 41.4917 24.2285 41.2 24.2285C40.9083 24.2285 40.6285 24.1133 40.4222 23.9082C40.2159 23.703 40.1 23.4248 40.1 23.1348Z" fill="#B9131A"/>
</g>
<defs>
<clipPath id="clip0_1_1379">
<rect width="44" height="35" fill="white" transform="translate(0.5 0.166016)"/>
</clipPath>
</defs>
</svg>
