<svg width="16" height="14" viewBox="0 0 16 14" fill="none" xmlns="http://www.w3.org/2000/svg">
<path d="M8.71311 0.355065C12.2626 0.355065 15.1415 2.99303 15.1415 6.24543C15.1415 6.58311 14.845 6.85478 14.4765 6.85478C14.108 6.85478 13.8115 6.58311 13.8115 6.24543C13.8115 3.66586 11.5283 1.57376 8.71311 1.57376C8.34459 1.57376 8.04811 1.30209 8.04811 0.964413C8.04811 0.626732 8.34459 0.355065 8.71311 0.355065ZM8.93478 5.22985C9.16994 5.22985 9.39547 5.31545 9.56175 5.46782C9.72804 5.62018 9.82145 5.82684 9.82145 6.04231C9.82145 6.25779 9.72804 6.46445 9.56175 6.61681C9.39547 6.76918 9.16994 6.85478 8.93478 6.85478C8.69962 6.85478 8.47409 6.76918 8.30781 6.61681C8.14152 6.46445 8.04811 6.25779 8.04811 6.04231C8.04811 5.82684 8.14152 5.62018 8.30781 5.46782C8.47409 5.31545 8.69962 5.22985 8.93478 5.22985ZM8.04811 3.40181C8.04811 3.06412 8.34459 2.79246 8.71311 2.79246C10.794 2.79246 12.4815 4.33868 12.4815 6.24543C12.4815 6.58311 12.185 6.85478 11.8165 6.85478C11.4479 6.85478 11.1515 6.58311 11.1515 6.24543C11.1515 5.0115 10.0597 4.01115 8.71311 4.01115C8.34459 4.01115 8.04811 3.73949 8.04811 3.40181ZM4.21048 0.39061C4.74802 0.256046 5.31051 0.507402 5.52386 0.979647L6.6322 3.41704C6.82062 3.83089 6.69039 4.31075 6.31078 4.59257L4.94475 5.61831C5.86745 7.40573 7.44683 8.85293 9.39751 9.6984L10.5142 8.4467C10.8245 8.09886 11.3454 7.97953 11.7971 8.15218L14.4571 9.16776C14.9725 9.36326 15.2468 9.87867 15.0999 10.3712L14.4349 12.6055C14.3047 13.0473 13.8669 13.3545 13.3681 13.3545C6.51306 13.3545 0.954727 8.26136 0.954727 1.97999C0.954727 1.52298 1.29 1.12183 1.77213 0.999958L4.21048 0.39061Z" fill="#B9131A"/>
</svg>
