<svg width="48" height="49" viewBox="0 0 48 49" fill="none" xmlns="http://www.w3.org/2000/svg">
<g clip-path="url(#clip0_1_164)">
<path d="M22.8188 0.376575L1.81875 9.37657C0.506253 9.93907 -0.224997 11.3453 0.065628 12.7328C0.356253 14.1203 1.575 15.1328 3 15.1328V15.8828C3 17.1297 4.00313 18.1328 5.25 18.1328H42.75C43.9969 18.1328 45 17.1297 45 15.8828V15.1328C46.425 15.1328 47.6531 14.1297 47.9344 12.7328C48.2156 11.3359 47.4844 9.9297 46.1813 9.37657L25.1813 0.376575C24.4219 0.0578247 23.5688 0.0578247 22.8188 0.376575ZM12 21.1328H6V39.5359C5.94375 39.5641 5.8875 39.6016 5.83125 39.6391L1.33125 42.6391C0.234378 43.3703 -0.262497 44.7391 0.121878 46.0047C0.506253 47.2703 1.67813 48.1328 3 48.1328H45C46.3219 48.1328 47.4844 47.2703 47.8688 46.0047C48.2531 44.7391 47.7656 43.3703 46.6594 42.6391L42.1594 39.6391C42.1031 39.6016 42.0469 39.5734 41.9906 39.5359V21.1328H36V39.1328H32.25V21.1328H26.25V39.1328H21.75V21.1328H15.75V39.1328H12V21.1328ZM24 6.13282C24.7957 6.13282 25.5587 6.44889 26.1213 7.0115C26.6839 7.57411 27 8.33717 27 9.13282C27 9.92847 26.6839 10.6915 26.1213 11.2541C25.5587 11.8168 24.7957 12.1328 24 12.1328C23.2044 12.1328 22.4413 11.8168 21.8787 11.2541C21.3161 10.6915 21 9.92847 21 9.13282C21 8.33717 21.3161 7.57411 21.8787 7.0115C22.4413 6.44889 23.2044 6.13282 24 6.13282Z" fill="#B9131A"/>
</g>
<defs>
<clipPath id="clip0_1_164">
<rect width="48" height="48" fill="white" transform="translate(0 0.132812)"/>
</clipPath>
</defs>
</svg>
