<svg width="61" height="49" viewBox="0 0 61 49" fill="none" xmlns="http://www.w3.org/2000/svg">
<g clip-path="url(#clip0_1_176)">
<path d="M15.2857 6.13281C15.2857 2.82344 18.0148 0.132812 21.3714 0.132812H54.8428C58.1995 0.132812 60.9286 2.82344 60.9286 6.13281V33.1328C60.9286 36.4422 58.1995 39.1328 54.8428 39.1328H32.0975C30.9754 36.7422 29.2543 34.6797 27.1148 33.1328H36.5857V30.1328C36.5857 28.4734 37.9455 27.1328 39.6286 27.1328H45.7143C47.3974 27.1328 48.7571 28.4734 48.7571 30.1328V33.1328H54.8428V6.13281H21.3714V10.7359C19.5837 9.71406 17.5013 9.13281 15.2857 9.13281V6.13281ZM15.2857 12.1328C16.4845 12.1328 17.6715 12.3656 18.7791 12.8179C19.8866 13.2702 20.8929 13.9331 21.7406 14.7689C22.5882 15.6046 23.2606 16.5967 23.7194 17.6887C24.1782 18.7806 24.4143 19.9509 24.4143 21.1328C24.4143 22.3147 24.1782 23.485 23.7194 24.577C23.2606 25.6689 22.5882 26.661 21.7406 27.4968C20.8929 28.3325 19.8866 28.9954 18.7791 29.4477C17.6715 29.9 16.4845 30.1328 15.2857 30.1328C14.0869 30.1328 12.8999 29.9 11.7923 29.4477C10.6848 28.9954 9.67849 28.3325 8.83082 27.4968C7.98316 26.661 7.31075 25.6689 6.852 24.577C6.39324 23.485 6.15713 22.3147 6.15713 21.1328C6.15713 19.9509 6.39324 18.7806 6.852 17.6887C7.31075 16.5967 7.98316 15.6046 8.83082 14.7689C9.67849 13.9331 10.6848 13.2702 11.7923 12.8179C12.8999 12.3656 14.0869 12.1328 15.2857 12.1328ZM12.7468 33.1328H17.8151C24.8232 33.1328 30.5 38.7297 30.5 45.6297C30.5 47.0078 29.3684 48.1328 27.9611 48.1328H2.6103C1.20297 48.1328 0.0714111 47.0172 0.0714111 45.6297C0.0714111 38.7297 5.74824 33.1328 12.7468 33.1328Z" fill="#B9131A"/>
</g>
<defs>
<clipPath id="clip0_1_176">
<rect width="60.8571" height="48" fill="white" transform="translate(0.0714111 0.132812)"/>
</clipPath>
</defs>
</svg>
