<svg width="50" height="50" viewBox="0 0 50 50" fill="none" xmlns="http://www.w3.org/2000/svg">
<g clip-path="url(#clip0_1_1838)">
<path d="M25 50C38.8071 50 50 38.8071 50 25C50 11.1929 38.8071 0 25 0C11.1929 0 0 11.1929 0 25C0 38.8071 11.1929 50 25 50Z" fill="white"/>
<path d="M18.3334 35.0372C18.3704 35.0742 18.4074 35.0742 18.4074 35.1113C18.6667 35.2964 18.8889 35.5927 19.1482 35.815C19.963 36.4816 20.8889 36.852 21.963 36.889C24.4815 37.0372 26.6667 35.1483 26.963 32.6668C26.963 32.5557 26.963 32.4076 26.963 32.2964C26.963 24.815 26.963 17.3335 26.963 9.852C26.963 9.33348 26.963 9.33348 27.4815 9.33348C28.6297 9.33348 29.7408 9.33348 30.8889 9.33348C31 9.33348 31.1111 9.29644 31.2222 9.37051C31.2222 9.37051 31.2222 9.37051 31.2593 9.37051C31.2963 9.44459 31.3334 9.48163 31.3334 9.5557C31.7778 11.5557 32.8148 13.1853 34.4815 14.4076C34.5926 14.4816 34.6667 14.5927 34.7778 14.6668C34.8519 14.7409 34.9259 14.7779 35 14.852C35.2593 15.0001 35.4445 15.2594 35.7037 15.4446C36.6297 16.2224 37.6667 16.7409 38.8148 17.0372C38.9259 17.0742 39.0371 17.0742 39.1111 17.1483C39.1111 17.1483 39.1111 17.1483 39.1482 17.1483C39.2222 17.2224 39.2222 17.2964 39.2222 17.4076C39.2222 18.7409 39.2222 20.0372 39.2222 21.3705C39.2222 21.6668 39.1852 21.7038 38.8889 21.7038C37.9259 21.7038 36.963 21.5927 36.0371 21.3705C34.4074 21.0001 32.9259 20.3335 31.5556 19.4446C31.4815 19.4076 31.4074 19.2964 31.3334 19.3335C31.2222 19.3705 31.2963 19.5187 31.2963 19.5927C31.2963 23.2964 31.2963 27.0001 31.2963 30.7409C31.2963 33.3335 30.4445 35.6668 28.7408 37.6298C26.9259 39.7409 24.6297 40.9631 21.8889 41.2964C19.7778 41.5557 17.7408 41.1853 15.8519 40.2224C15.5556 40.0742 15.2593 39.889 14.963 39.6668C14.8889 39.5927 14.7778 39.5187 14.7037 39.4446C14.0371 38.889 13.5926 38.1853 13.1482 37.4816C12.4815 36.3705 12.0741 35.1853 11.8519 33.889C11.7408 33.1483 11.6667 32.4076 11.7037 31.7038C11.8519 29.3335 12.6297 27.2224 14.1482 25.3705C15.4445 23.815 17.0371 22.7409 18.9259 22.1113C19.7037 21.852 20.5185 21.6668 21.3704 21.6298C21.5185 21.6298 21.6667 21.5927 21.8519 21.5927C21.9259 21.5927 22 21.5927 22.0741 21.6298C22.0741 21.6298 22.0741 21.6298 22.1111 21.6298C22.1482 21.7038 22.1482 21.7779 22.1482 21.852C22.1482 23.1853 22.1482 24.5187 22.1482 25.852C22.1482 25.889 22.1482 25.9631 22.1482 26.0001C22.1482 26.1483 22.0741 26.1853 21.963 26.1483C21.5926 26.0372 21.2222 26.0001 20.8519 25.9631C20.2593 25.9261 19.7037 26.0001 19.1482 26.2224C17.2963 26.889 16.1852 28.2224 15.963 30.1483C15.7408 32.0742 16.4815 33.5927 18.0741 34.7038C18.0741 34.852 18.1852 34.9261 18.3334 35.0372Z" fill="#B9131A"/>
<path d="M14.8519 39.7041C14.9259 39.667 14.963 39.7411 15 39.7781C16.1852 40.5189 17.4815 41.0004 18.8519 41.2226C19.5556 41.3337 20.2593 41.3707 20.963 41.3337C23.3333 41.2226 25.4074 40.4448 27.2593 38.9263C29 37.4818 30.1852 35.63 30.7778 33.4448C30.963 32.7411 31.0741 32.0374 31.1111 31.3337C31.1482 30.9263 31.1482 30.5189 31.1482 30.1115C31.1482 26.5559 31.1482 23.0374 31.1482 19.4818C31.1482 19.4078 31.1482 19.3337 31.1482 19.2226C31.2222 19.1855 31.2963 19.2596 31.3333 19.2967C32.5926 20.1485 33.963 20.8152 35.4445 21.1855C36.2593 21.4078 37.0741 21.5559 37.9259 21.63C38.2593 21.667 38.6296 21.667 38.963 21.667C39.1111 21.667 39.1111 21.667 39.1111 21.5189C39.1111 21.3337 39.1111 21.1855 39.1111 21.0004C39.1111 19.8152 39.1111 18.593 39.1111 17.4078C39.1111 17.3337 39.1111 17.2596 39.1111 17.1855C39.4445 17.2226 39.7408 17.2967 40.0371 17.2967C40.2222 17.2967 40.4445 17.3337 40.6296 17.3337C40.7408 17.3337 40.7778 17.3707 40.7408 17.4448C40.7408 17.4818 40.7408 17.5189 40.7408 17.5559C40.7408 19.2967 40.7408 21.0004 40.7408 22.7411C40.7408 22.7781 40.7408 22.8152 40.7408 22.8522C40.7408 23.0004 40.7408 23.0004 40.5926 23.0004C40.0371 23.0004 39.5185 22.9633 38.963 22.8892C37.8519 22.7411 36.8148 22.4818 35.7778 22.0744C34.7778 21.7041 33.8519 21.1855 33 20.593C32.963 20.5559 32.8889 20.5189 32.8148 20.4818C32.8148 20.593 32.8148 20.667 32.8148 20.7411C32.8148 24.5189 32.8148 28.2967 32.8148 32.0744C32.8148 34.0744 32.2963 35.9633 31.2222 37.667C29.9259 39.7411 28.1111 41.1855 25.8148 42.0004C24.4074 42.5189 23 42.7041 21.5185 42.593C19.0371 42.4078 16.8519 41.4448 15.0371 39.7781C14.963 39.8152 14.9259 39.7411 14.8519 39.7041Z" fill="#770005"/>
<path d="M31.1852 9.40773C31.1111 9.40773 31.037 9.40773 30.963 9.40773C29.7407 9.40773 28.5185 9.40773 27.2963 9.40773C27 9.40773 27 9.40773 27 9.66699C27 17.1114 27 24.5559 27 32.0003C27 32.5188 26.963 33.0374 26.8148 33.5188C26.2593 35.2596 25.0741 36.4077 23.2963 36.8151C21.3704 37.2596 19.7407 36.667 18.4444 35.1855C18.4074 35.1485 18.4074 35.1114 18.4074 35.1114C18.7778 35.2596 19.1481 35.4077 19.5556 35.4818C20.8148 35.7411 21.963 35.5559 23.0741 34.8522C24.3333 34.0744 25.0741 32.9633 25.3333 31.5188C25.3704 31.2596 25.4074 30.9633 25.4074 30.704C25.4074 23.2596 25.4074 15.8151 25.4074 8.33365C25.4074 8.00032 25.3704 8.03736 25.7037 8.03736C27.4074 8.03736 29.1482 8.03736 30.8519 8.03736C30.8889 8.03736 30.9259 8.03736 30.963 8.03736C31.1482 8.03736 31.1482 8.03736 31.1482 8.22254C31.1111 8.62995 31.1111 9.03736 31.1852 9.40773Z" fill="#6ABAC5"/>
<path d="M22 21.63C20.963 21.667 19.9259 21.8152 18.9259 22.1485C17.4815 22.63 16.1852 23.3707 15.0741 24.4078C13.5926 25.7411 12.5926 27.4078 12.0741 29.2966C11.8889 29.9633 11.7778 30.667 11.7037 31.3707C11.6667 31.7781 11.6667 32.2226 11.7037 32.63C11.7778 33.8152 12 34.9633 12.4445 36.0374C12.963 37.2596 13.6297 38.3707 14.5556 39.3337C14.5556 39.3707 14.5926 39.3707 14.5926 39.4078C14.3704 39.3337 14.2222 39.1855 14.0371 39.0374C12.3334 37.7041 11.1482 36.0003 10.4815 33.8892C10.2593 33.1485 10.1111 32.4448 10.0371 31.667C10 31.1115 9.96298 30.5559 10 30.0374C10.0741 28.7781 10.3704 27.5559 10.8889 26.4078C11.4445 25.2226 12.1852 24.1485 13.1111 23.2226C14.2222 22.1485 15.4815 21.3337 16.9259 20.8152C17.8519 20.4818 18.7778 20.2966 19.7408 20.2226C20.4445 20.1855 21.1482 20.1855 21.8148 20.2596C21.9259 20.2596 21.963 20.2966 21.963 20.4078C22 20.8522 22 21.2596 22 21.63Z" fill="#6ABAC5"/>
<path d="M18.3334 35.0372C17.9259 34.8521 17.5556 34.5558 17.2222 34.2595C16.3704 33.4447 15.8889 32.4817 15.7778 31.3335C15.5185 28.9261 17.0371 26.8521 19.1482 26.1854C20.0371 25.9261 20.963 25.8891 21.8519 26.1484C21.8889 26.1484 21.963 26.1854 22 26.1854C22.0371 26.1113 22 26.0372 22 25.9632C22 24.5928 22 23.2595 22 21.8891C22 21.815 22 21.7409 22 21.6669C22.5185 21.6298 23.0371 21.6669 23.5556 21.7409C23.6296 21.7409 23.6667 21.778 23.6667 21.8521C23.6667 21.8891 23.6667 21.9261 23.6667 21.9632C23.6667 23.7409 23.6667 25.5558 23.6667 27.3335C23.6667 27.4076 23.6667 27.4817 23.6296 27.5558C23.4074 27.5187 23.1482 27.4447 22.9259 27.4076C21.5556 27.2224 20.2963 27.5558 19.1852 28.4076C18.2222 29.1484 17.6296 30.1484 17.4445 31.3706C17.2222 32.6669 17.4815 33.8521 18.2222 34.9261C18.2593 34.9261 18.2963 35.0002 18.3334 35.0372Z" fill="#770005"/>
<path d="M34.7407 14.7044C34.2222 14.4081 33.7778 14.0007 33.3333 13.5933C32.2222 12.4452 31.4815 11.0748 31.1852 9.48221V9.44517C31.6667 9.40813 32.1481 9.44517 32.6296 9.44517C32.7037 9.44517 32.7407 9.48221 32.7407 9.55628C32.7407 9.59332 32.7407 9.63036 32.7407 9.66739C32.7037 11.0378 33.1111 12.26 33.7778 13.4452C34 13.8526 34.2963 14.26 34.5926 14.6304C34.7037 14.6304 34.7407 14.6674 34.7407 14.7044Z" fill="#770005"/>
<path d="M39.0741 17.2221C37.7038 16.9258 36.4815 16.2962 35.4075 15.3702C35.2593 15.2221 35.0741 15.111 34.963 14.9258C35 14.9258 35.0371 14.9628 35.0741 14.9628C35.926 15.4443 36.8149 15.7406 37.7778 15.9258C38.1482 15.9999 38.5186 16.0369 38.8889 16.0369C39.0371 16.0369 39.0371 16.0369 39.0371 16.185C39.0741 16.5184 39.0741 16.8517 39.0741 17.2221Z" fill="#6ABAC5"/>
</g>
<defs>
<clipPath id="clip0_1_1838">
<rect width="50" height="50" fill="white"/>
</clipPath>
</defs>
</svg>
