<svg width="62" height="49" viewBox="0 0 62 49" fill="none" xmlns="http://www.w3.org/2000/svg">
<g clip-path="url(#clip0_1_187)">
<path d="M31 3.13281C30.238 3.13281 29.4855 3.26406 28.7706 3.51719L2.38457 13.0141C1.49093 13.3422 0.898299 14.1859 0.898299 15.1328C0.898299 16.0797 1.49093 16.9234 2.38457 17.2516L7.83109 19.2109C6.28838 21.6297 5.41355 24.4891 5.41355 27.4984V30.1328C5.41355 32.7953 4.39762 35.5422 3.31584 37.7078C2.7044 38.9266 2.0083 40.1266 1.19932 41.2328C0.898299 41.6359 0.813637 42.1609 0.98296 42.6391C1.15228 43.1172 1.54737 43.4734 2.03652 43.5953L8.05686 45.0953C8.45194 45.1984 8.87525 45.1234 9.2233 44.9078C9.57135 44.6922 9.81592 44.3359 9.89118 43.9328C10.7002 39.9203 10.2957 36.3203 9.69364 33.7422C9.39262 32.4109 8.98813 31.0516 8.42372 29.8047V27.4984C8.42372 24.6672 9.38321 21.9953 11.0482 19.8578C12.2617 18.4047 13.8326 17.2328 15.6763 16.5109L30.445 10.7266C31.2163 10.4266 32.0912 10.8016 32.3922 11.5703C32.6932 12.3391 32.3169 13.2109 31.5456 13.5109L16.7769 19.2953C15.6105 19.7547 14.5852 20.4578 13.748 21.3203L28.7612 26.7203C29.4761 26.9734 30.2286 27.1047 30.9906 27.1047C31.7525 27.1047 32.5051 26.9734 33.22 26.7203L59.6154 17.2516C60.5091 16.9328 61.1017 16.0797 61.1017 15.1328C61.1017 14.1859 60.5091 13.3422 59.6154 13.0141L33.2294 3.51719C32.5145 3.26406 31.7619 3.13281 31 3.13281ZM12.939 38.3828C12.939 41.6922 21.0288 45.1328 31 45.1328C40.9712 45.1328 49.061 41.6922 49.061 38.3828L47.6218 24.7516L34.2453 29.5703C33.2012 29.9453 32.1006 30.1328 31 30.1328C29.8994 30.1328 28.7894 29.9453 27.7547 29.5703L14.3782 24.7516L12.939 38.3828Z" fill="#B9131A"/>
</g>
<defs>
<clipPath id="clip0_1_187">
<rect width="60.2034" height="48" fill="white" transform="translate(0.898315 0.132812)"/>
</clipPath>
</defs>
</svg>
