<svg width="50" height="50" viewBox="0 0 50 50" fill="none" xmlns="http://www.w3.org/2000/svg">
<path d="M25 50C38.8071 50 50 38.8071 50 25C50 11.1929 38.8071 0 25 0C11.1929 0 0 11.1929 0 25C0 38.8071 11.1929 50 25 50Z" fill="white"/>
<path d="M13 19.8H18.5V37.4H13V19.8ZM15.8 11C17.6 11 19 12.4 19 14.2C19 16 17.6 17.4 15.8 17.4C14 17.4 12.6 16 12.6 14.2C12.6 12.4 14 11 15.8 11Z" fill="#B9131A"/>
<path d="M22 19.7994H27.2V22.1994H27.3C28 20.7994 29.8 19.3994 32.5 19.3994C38 19.3994 39.1 22.9994 39.1 27.7994V37.4994H33.6V28.8994C33.6 26.8994 33.6 24.1994 30.8 24.1994C28 24.1994 27.5 26.3994 27.5 28.6994V37.3994H22V19.7994V19.7994Z" fill="#B9131A"/>
</svg>
