<svg width="20" height="19" viewBox="0 0 20 19" fill="none" xmlns="http://www.w3.org/2000/svg">
<path d="M19.8083 4.97652C19.6891 5.43201 19.3641 5.73567 19.0282 6.03933C15.0628 9.55314 11.0974 13.0778 7.13193 16.5916C7.00191 16.7109 6.82856 16.7976 6.66604 16.841C4.75917 17.3833 2.85229 17.9147 0.956251 18.4461C0.912913 18.4569 0.869575 18.4786 0.826237 18.5003C0.663719 18.4895 0.512036 18.4786 0.349518 18.4678C0.360352 18.3051 0.371187 18.1533 0.382021 17.9906C0.577043 17.5351 0.782899 17.0688 0.97792 16.6133C1.57382 15.1709 2.16972 13.7393 2.76562 12.2969C2.80895 12.1885 2.89563 12.0692 2.98231 11.9933C7.04525 8.38187 11.119 4.77046 15.182 1.14821C15.442 0.920461 15.7345 0.790321 16.0704 0.72525C16.2113 0.736095 16.3629 0.74694 16.5038 0.74694C16.9372 0.855391 17.2514 1.14821 17.5331 1.48441C18.0856 2.12426 18.649 2.76412 19.2233 3.39314C19.5266 3.72933 19.7975 4.06553 19.8517 4.53187C19.8192 4.6837 19.8191 4.82469 19.8083 4.97652ZM5.27922 14.0864C5.62593 14.1081 5.9293 14.1189 6.23266 14.1514C6.37351 14.1623 6.48186 14.1298 6.5902 14.0321C9.19049 11.7113 11.8016 9.4013 14.4019 7.09131C14.4561 7.04793 14.4994 7.00455 14.5427 6.96116C14.1744 6.54905 13.8168 6.14778 13.4593 5.73567C13.4485 5.74652 13.4159 5.76821 13.3943 5.77905C10.7398 8.14328 8.0962 10.4967 5.44174 12.85C5.3984 12.8826 5.35507 12.9476 5.34423 12.991C5.32256 13.3489 5.30089 13.696 5.27922 14.0864ZM17.5006 6.40807C17.9448 6.01764 18.389 5.62722 18.8224 5.2368C19.1691 4.92229 19.1907 4.48849 18.8765 4.14145C18.1831 3.34976 17.4789 2.55807 16.7746 1.77722C16.4388 1.40849 16.0271 1.37595 15.6587 1.70131C15.2578 2.05919 14.8461 2.41708 14.4452 2.77497C14.4127 2.8075 14.3802 2.84004 14.3586 2.87257C15.4095 4.05469 16.4496 5.22595 17.5006 6.40807ZM6.23266 14.8781C6.12432 14.8672 6.02681 14.8564 5.9293 14.8455C5.6476 14.8238 5.37674 14.8022 5.09504 14.7805C4.65082 14.7371 4.56415 14.6503 4.57498 14.1948C4.58582 13.8803 4.59665 13.5658 4.60748 13.2513C4.60748 13.1862 4.60748 13.1212 4.59665 13.0561C4.16327 12.9585 3.75156 12.8717 3.33985 12.7741C2.9498 13.7176 2.55976 14.6503 2.19139 15.5396C2.46225 15.7674 2.72228 15.9517 2.92813 16.1795C3.13399 16.4181 3.28567 16.7 3.46986 16.982C4.37996 16.7217 5.32256 16.4614 6.25433 16.1903C6.29767 16.1795 6.34101 16.0819 6.34101 16.0276C6.3085 15.6589 6.26517 15.2793 6.23266 14.8781ZM3.93574 12.156C4.19577 12.2102 4.44497 12.2536 4.69416 12.3295C4.83501 12.3729 4.92169 12.3403 5.03003 12.2427C7.63032 9.93271 10.2306 7.61187 12.8417 5.30187C12.8851 5.25849 12.9284 5.21511 12.9717 5.18257C12.7875 4.97652 12.6142 4.78131 12.4517 4.59694C9.61303 7.10215 6.78522 9.61821 3.93574 12.156ZM7.04525 15.6589C9.89473 13.132 12.7225 10.616 15.5503 8.0999C15.3878 7.91553 15.2145 7.72032 15.0086 7.49257C14.9761 7.53595 14.9436 7.59018 14.9003 7.63356C12.3 9.94356 9.69971 12.2536 7.08859 14.5744C7.05609 14.6069 7.02358 14.6286 6.99108 14.6612C6.96941 14.6937 6.94774 14.7371 6.94774 14.7696C6.98024 15.0516 7.01275 15.3552 7.04525 15.6589ZM13.0367 4.07638C14.066 5.2368 15.1061 6.41891 16.1354 7.56849C16.3846 7.35159 16.6446 7.113 16.9047 6.88525C15.8754 5.72483 14.8353 4.55356 13.806 3.39314C13.546 3.62088 13.2859 3.85948 13.0367 4.07638ZM1.34629 17.5785C1.83385 17.4483 2.26723 17.3182 2.72228 17.1989C2.54893 16.7868 2.2889 16.4831 1.89885 16.2662C1.71467 16.6892 1.54132 17.1122 1.34629 17.5785Z" fill="#4E4E8C"/>
<path d="M5.27923 14.0863C5.3009 13.6959 5.32257 13.3489 5.34424 12.991C5.34424 12.9367 5.39841 12.8825 5.44175 12.85C8.0962 10.4966 10.7398 8.14322 13.3943 5.78984C13.416 5.76815 13.4376 5.75731 13.4593 5.74646C13.8168 6.15857 14.1744 6.55984 14.5427 6.97195C14.4994 7.00449 14.4561 7.05871 14.4019 7.10209C11.7908 9.41209 9.19049 11.7329 6.59021 14.0429C6.48186 14.1405 6.37351 14.1731 6.23267 14.1622C5.9293 14.1189 5.62593 14.108 5.27923 14.0863Z" fill="#FFEBD9"/>
<path d="M17.5005 6.40806C16.4496 5.2151 15.4095 4.04384 14.3585 2.86172C14.3802 2.82919 14.4127 2.79665 14.4452 2.76412C14.8461 2.40623 15.247 2.04834 15.6587 1.69046C16.027 1.36511 16.4496 1.3868 16.7746 1.76637C17.4789 2.55806 18.1723 3.34975 18.8765 4.1306C19.1907 4.47764 19.1691 4.91144 18.8224 5.22595C18.389 5.62722 17.9448 6.01764 17.5005 6.40806Z" fill="#FFEBD9"/>
<path d="M6.23275 14.8782C6.27609 15.2795 6.31943 15.659 6.35193 16.0386C6.35193 16.0928 6.30859 16.1796 6.26525 16.2013C5.33348 16.4724 4.39088 16.7327 3.48078 16.993C3.29659 16.711 3.14491 16.4182 2.93906 16.1904C2.7332 15.9627 2.47317 15.7783 2.20231 15.5506C2.57068 14.6613 2.96072 13.7286 3.35077 12.7851C3.77331 12.8827 4.18503 12.9695 4.60757 13.0671C4.60757 13.1321 4.61841 13.1972 4.61841 13.2623C4.60757 13.5768 4.59674 13.8913 4.5859 14.2058C4.57507 14.6613 4.65091 14.7481 5.10596 14.7914C5.38766 14.8131 5.65852 14.8348 5.94022 14.8565C6.02689 14.8565 6.11357 14.8673 6.23275 14.8782Z" fill="#FFEBD9"/>
<path d="M3.93573 12.1559C6.78521 9.62897 9.61302 7.11292 12.4517 4.59686C12.6142 4.78123 12.7875 4.97644 12.9717 5.1825C12.9284 5.21503 12.885 5.25841 12.8417 5.30179C10.2414 7.61179 7.6303 9.92179 5.03002 12.2426C4.92167 12.3402 4.835 12.3728 4.69415 12.3294C4.44495 12.2535 4.19576 12.2101 3.93573 12.1559Z" fill="#FFEBD9"/>
<path d="M7.0453 15.6591C7.01279 15.3554 6.98029 15.0626 6.94778 14.7589C6.94778 14.7264 6.96945 14.683 6.99112 14.6505C7.01279 14.6179 7.05613 14.5962 7.08863 14.5637C9.68892 12.2537 12.3 9.9437 14.9003 7.62286C14.9437 7.57948 14.9762 7.52525 15.0087 7.48187C15.2145 7.70962 15.3879 7.90483 15.5504 8.0892C12.7226 10.6053 9.89477 13.1213 7.0453 15.6591Z" fill="#FFEBD9"/>
<path d="M13.0368 4.07655C13.286 3.85965 13.546 3.62106 13.806 3.39331C14.8353 4.55373 15.8754 5.73585 16.9047 6.88542C16.6555 7.11317 16.3846 7.34092 16.1354 7.56866C15.1062 6.40824 14.066 5.23697 13.0368 4.07655Z" fill="#FFEBD9"/>
<path d="M1.34629 17.5786C1.54131 17.1123 1.71466 16.6893 1.88802 16.2555C2.27806 16.4724 2.54892 16.7761 2.71144 17.1882C2.26722 17.3183 1.83384 17.4485 1.34629 17.5786Z" fill="#FFEBD9"/>
</svg>
