<svg width="108" height="53" viewBox="0 0 108 53" fill="none" xmlns="http://www.w3.org/2000/svg">
<path d="M27.8144 35.346L44.3148 1.47786H32.3023L22.3437 24.4391H22.2344L12.3761 1.47786H0.694275L19.02 39.6709C22.014 37.8712 24.9169 36.3958 27.8144 35.346ZM55.6733 29.7235C64.7783 30.0443 76.0393 33.6465 84.2872 35.2358C86.3276 35.6613 88.1466 35.9775 89.7561 35.9775C93.1764 36.0769 107.536 35.2358 107.536 22.8589C107.536 12.9006 90.5057 14.2821 84.2881 11.9611C82.8927 11.4234 82.031 10.6853 82.031 9.62733C82.031 8.04537 82.8918 7.09309 84.2881 6.44883C85.4686 6.03055 86.9661 5.81367 88.4645 5.81367C92.6472 5.81367 94.8988 7.40839 95.2158 10.6853H106.363C105.829 3.27215 97.6888 0.52832 89.6386 0.52832C87.611 0.52832 85.8986 0.634939 84.2881 0.845441C77.4275 1.58083 73.7767 3.91003 72.0661 6.44974V1.47786H60.9217V20.2126C60.9217 25.9244 59.1027 27.8335 53.4134 27.8335C47.6285 27.8335 45.9161 25.9235 45.9161 20.2126V6.44883L35.6324 27.192C35.6324 29.3043 36.7008 30.889 39.3833 32.0582C44.0889 30.4653 49.5614 29.5185 55.6733 29.7235ZM72.0652 15.1359C74.3205 18.6188 79.3522 19.7798 84.2872 20.4149C90.3919 21.3708 96.3908 21.5786 96.3908 24.9713C96.3908 27.2923 94.2466 28.6737 89.2159 28.6737C87.6101 28.6737 85.7929 28.5598 84.2872 28.0276C82.4609 27.3998 81.0746 26.1286 81.0746 23.4822H72.0652V15.1359V15.1359Z" fill="white"/>
<path fill-rule="evenodd" clip-rule="evenodd" d="M97.2562 38.1937C81.6047 44.5425 47.9555 15.6544 12.2677 52.4714H25.5573C48.1632 26.3472 73.0344 42.3226 90.8264 41.5763C99.0742 41.2592 103.368 34.7008 103.256 34.7008C103.155 34.7017 101.434 36.6035 97.2562 38.1937ZM34.0238 52.4714H46.0163C47.4199 49.7212 53.4134 41.5772 77.6397 42.7372C84.606 43.0607 85.3584 42.7372 85.3584 42.7372C85.3584 42.7372 81.9354 42.4256 79.0425 41.8934C49.0303 36.5005 36.8174 48.9822 34.0238 52.4714ZM53.5254 52.4714H64.7783C66.3878 46.0306 81.6047 44.3265 81.6047 44.3265C81.6047 44.3265 61.5611 43.3797 53.5254 52.4714Z" fill="white"/>
</svg>
