<svg width="85" height="96" viewBox="0 0 85 96" fill="none" xmlns="http://www.w3.org/2000/svg">
<g filter="url(#filter0_d_1_304)">
<g filter="url(#filter1_d_1_304)">
<circle cx="42.5" cy="38.5" r="27.5" fill="#FEFEFE"/>
</g>
</g>
<path d="M41.9393 52.0607C42.5251 52.6464 43.4749 52.6464 44.0607 52.0607L53.6066 42.5147C54.1924 41.9289 54.1924 40.9792 53.6066 40.3934C53.0208 39.8076 52.0711 39.8076 51.4853 40.3934L43 48.8787L34.5147 40.3934C33.9289 39.8076 32.9792 39.8076 32.3934 40.3934C31.8076 40.9792 31.8076 41.9289 32.3934 42.5147L41.9393 52.0607ZM41.5 26L41.5 51L44.5 51L44.5 26L41.5 26Z" fill="#5F5F5F"/>
<defs>
<filter id="filter0_d_1_304" x="0" y="0" width="85" height="85" filterUnits="userSpaceOnUse" color-interpolation-filters="sRGB">
<feFlood flood-opacity="0" result="BackgroundImageFix"/>
<feColorMatrix in="SourceAlpha" type="matrix" values="0 0 0 0 0 0 0 0 0 0 0 0 0 0 0 0 0 0 127 0" result="hardAlpha"/>
<feOffset dy="4"/>
<feGaussianBlur stdDeviation="7.5"/>
<feComposite in2="hardAlpha" operator="out"/>
<feColorMatrix type="matrix" values="0 0 0 0 0 0 0 0 0 0 0 0 0 0 0 0 0 0 0.1 0"/>
<feBlend mode="normal" in2="BackgroundImageFix" result="effect1_dropShadow_1_304"/>
<feBlend mode="normal" in="SourceGraphic" in2="effect1_dropShadow_1_304" result="shape"/>
</filter>
<filter id="filter1_d_1_304" x="0" y="11" width="85" height="85" filterUnits="userSpaceOnUse" color-interpolation-filters="sRGB">
<feFlood flood-opacity="0" result="BackgroundImageFix"/>
<feColorMatrix in="SourceAlpha" type="matrix" values="0 0 0 0 0 0 0 0 0 0 0 0 0 0 0 0 0 0 127 0" result="hardAlpha"/>
<feMorphology radius="15" operator="erode" in="SourceAlpha" result="effect1_dropShadow_1_304"/>
<feOffset dy="15"/>
<feGaussianBlur stdDeviation="15"/>
<feComposite in2="hardAlpha" operator="out"/>
<feColorMatrix type="matrix" values="0 0 0 0 0 0 0 0 0 0 0 0 0 0 0 0 0 0 0.25 0"/>
<feBlend mode="normal" in2="BackgroundImageFix" result="effect1_dropShadow_1_304"/>
<feBlend mode="normal" in="SourceGraphic" in2="effect1_dropShadow_1_304" result="shape"/>
</filter>
</defs>
</svg>
