<svg width="50" height="50" viewBox="0 0 50 50" fill="none" xmlns="http://www.w3.org/2000/svg">
<circle cx="25" cy="25" r="25" fill="white"/>
<path d="M10.5677 29.2376C12.4113 29.2376 14.1469 29.2264 15.8691 29.2376C16.8336 29.2489 17.3597 29.6549 17.4564 30.4263C17.5666 31.394 17.0045 32.0436 15.9546 32.0572C13.9761 32.082 12.0088 32.0684 10.0304 32.0684C9.45705 32.0684 8.89498 32.0932 8.31942 32.0572C7.61121 32.0211 6.91425 31.8745 6.57251 31.1391C6.23077 30.4038 6.47583 29.7429 6.93898 29.1406C8.82078 26.7384 10.7138 24.3249 12.6069 21.9227C12.717 21.776 12.8272 21.6294 12.9374 21.4941C12.816 21.2866 12.6451 21.3836 12.4967 21.3723C11.177 21.361 9.846 21.3723 8.52626 21.361C8.22049 21.361 7.91473 21.3249 7.62245 21.264C6.92549 21.1039 6.49832 20.4069 6.65794 19.7189C6.76811 19.2543 7.13458 18.8731 7.59772 18.7625C7.89 18.6881 8.19576 18.652 8.50153 18.652C10.6756 18.6407 12.8632 18.6407 15.0373 18.652C15.4285 18.6407 15.8062 18.6881 16.1861 18.7874C17.0157 19.0693 17.371 19.8407 17.0405 20.6505C16.7482 21.3497 16.2828 21.9497 15.8197 22.5497C14.2189 24.5956 12.6204 26.6301 11.0196 28.6534C10.8847 28.8091 10.7633 28.9692 10.5677 29.2376Z" fill="#B9131A"/>
<path d="M24.7363 22.7909C25.0286 22.412 25.3344 22.0556 25.8357 21.9586C26.8002 21.7624 27.7041 22.3872 27.7175 23.3684C27.7535 25.8202 27.7423 28.2698 27.7175 30.7217C27.7175 31.36 27.3016 31.9217 26.7036 32.1067C26.092 32.339 25.3973 32.1563 24.9926 31.6285C24.7858 31.3713 24.7004 31.3217 24.4058 31.554C23.2952 32.4608 22.0362 32.6209 20.6804 32.1788C18.5064 31.4683 17.6138 29.7653 17.371 27.6947C17.1147 25.4526 17.8589 23.5398 19.8621 22.3646C21.5235 21.3699 23.2098 21.4556 24.7363 22.7909ZM20.4129 27.2638C20.4376 27.8029 20.6085 28.3172 20.9255 28.7458C21.5842 29.6277 22.8433 29.8127 23.7358 29.1495C23.882 29.039 24.0169 28.9037 24.1383 28.7458C24.8218 27.8142 24.8218 26.2826 24.1383 25.3511C23.7966 24.8729 23.2592 24.5909 22.6837 24.5797C21.3414 24.4962 20.3994 25.536 20.4129 27.2638ZM33.2011 27.3383C33.1044 24.1894 35.1683 21.8368 38.1001 21.7511C41.2139 21.6541 43.4869 23.7496 43.5836 26.8127C43.6803 29.9142 41.7872 32.1067 38.869 32.3999C35.6809 32.7179 33.1516 30.4014 33.2011 27.3383ZM36.2677 27.045C36.243 27.6586 36.4274 28.2586 36.7938 28.7616C37.4661 29.6435 38.7229 29.8149 39.6042 29.1292C39.7391 29.0322 39.8492 28.9082 39.9594 28.7864C40.6676 27.8548 40.6676 26.2872 39.9706 25.3556C39.6289 24.8909 39.0916 24.5954 38.516 24.5842C37.1963 24.5075 36.2677 25.5135 36.2677 27.045ZM32.1264 24.8999C32.1264 26.7992 32.1377 28.6984 32.1264 30.5976C32.1377 31.4683 31.4542 32.1901 30.5863 32.2149C30.4402 32.2149 30.2806 32.2036 30.1344 32.1653C29.5229 32.0051 29.0598 31.3555 29.0598 30.5841V20.8443C29.0598 20.2692 29.0485 19.7053 29.0598 19.1278C29.071 18.185 29.6713 17.5714 30.5751 17.5714C31.5036 17.5602 32.1264 18.1714 32.1264 19.1526C32.1377 21.0631 32.1264 22.9872 32.1264 24.8999Z" fill="#B9131A"/>
</svg>
