<svg width="14" height="26" viewBox="0 0 14 26" fill="none" xmlns="http://www.w3.org/2000/svg">
<path fill-rule="evenodd" clip-rule="evenodd" d="M9.1066 6.40102C9.1066 7.45685 9.04061 9.83249 9.04061 9.83249C9.04061 9.83249 11.6802 9.83249 12.868 9.83249H13.7919C13.5939 11.4822 13.3959 13.066 13.198 14.6497H9.1066V25.5381C7.85279 25.868 6.59898 26 5.2132 26C4.81726 26 4.48731 26 4.09137 25.934V14.5838H0V9.7665H4.09137V9.43655C4.09137 8.4467 4.09137 7.52284 4.09137 6.533C4.09137 5.93909 4.15736 5.27919 4.22335 4.68528C4.48731 3.2335 5.14721 1.9797 6.40101 1.12183C7.45685 0.329949 8.71066 0.0659899 9.96447 0C10.8223 0 11.6802 2.50748e-07 12.4721 0.0659901C12.934 0.0659901 13.3959 0.13198 13.8579 0.19797V4.48731H13.5279C12.67 4.48731 11.8782 4.48731 11.0863 4.48731C9.96447 4.5533 9.17259 5.01523 9.1066 6.40102Z" fill="#B9131A"/>
</svg>
