<svg width="20" height="14" viewBox="0 0 20 14" fill="none" xmlns="http://www.w3.org/2000/svg">
<g clip-path="url(#clip0_1_1649)">
<path d="M13.8973 0.406708L1.2037 12.8189L17.7452 11.6206L14.216 8.07106L13.8973 0.406708Z" fill="#FFEBD9"/>
<path d="M17.8704 11.8919C17.8362 11.9032 17.8021 11.9145 17.7679 11.9145L1.22647 13.1128C1.10124 13.1241 0.987399 13.0563 0.930477 12.9432C0.873556 12.8302 0.907709 12.6945 0.998783 12.6041L13.6923 0.203222C13.772 0.124091 13.8972 0.0901783 14.0111 0.135396C14.1249 0.180613 14.1932 0.282352 14.2046 0.395396L14.512 7.9354L17.9615 11.4058C18.0411 11.485 18.0639 11.6093 18.0298 11.7224C17.9956 11.8015 17.9387 11.8693 17.8704 11.8919ZM2.00061 12.4684L17.0849 11.3832L14.0111 8.28583C13.9542 8.22931 13.9314 8.16148 13.92 8.09366L13.6354 1.10757L2.00061 12.4684Z" fill="#4E4E8C"/>
<path d="M1.67047 12.5702L18.9633 6.47712L13.7151 4.51016L1.67047 12.5702Z" fill="#FFEBD9"/>
<path d="M19.0999 6.77103C19.0885 6.77103 19.0885 6.78234 19.0771 6.78234L1.77292 12.8754C1.62493 12.9319 1.45416 12.8641 1.38585 12.7171C1.31755 12.5702 1.36309 12.4006 1.48831 12.3102L13.5329 4.25016C13.624 4.19364 13.7265 4.18234 13.8289 4.21625L19.0885 6.18321C19.2137 6.22842 19.2934 6.35277 19.2934 6.48842C19.282 6.61277 19.2137 6.71451 19.0999 6.77103ZM3.93595 11.4397L18.0411 6.47712L13.7493 4.8606L3.93595 11.4397Z" fill="#4E4E8C"/>
</g>
<defs>
<clipPath id="clip0_1_1649">
<rect width="18.3857" height="13" fill="white" transform="translate(0.907715 0.112793)"/>
</clipPath>
</defs>
</svg>
