<svg width="1758" height="130" viewBox="0 0 1758 130" fill="none" xmlns="http://www.w3.org/2000/svg">
<g filter="url(#filter0_d_1_310)">
<rect x="15" y="13" width="1728" height="100" fill="white"/>
</g>
<path d="M339.97 74.1902H338.166C337.872 74.1902 337.644 74.4142 337.644 74.7032V76.4237C337.644 76.7068 337.872 76.9209 338.166 76.9209H339.97C340.266 76.9209 340.496 76.7068 340.496 76.4237V74.7032C340.496 74.4132 340.266 74.1902 339.97 74.1902ZM349.494 72.7628H353.545V60.0596H349.494V72.7628ZM344.997 60.0596C343.944 59.9185 342.075 59.9185 339.369 59.9185C336.667 59.9185 334.793 59.9185 333.745 60.0596C332.324 60.2658 331.422 60.9918 331.041 62.2141C330.813 63.0023 330.742 64.3647 330.742 66.3041C330.742 68.3906 330.813 69.82 331.041 70.6082C331.347 71.8335 332.324 72.5487 333.745 72.6868C334.793 72.8328 336.667 72.9028 339.369 72.9028C342.075 72.9028 343.944 72.8338 344.997 72.7618C346.419 72.4688 347.321 71.8335 347.692 70.6073C347.916 69.7441 347.997 68.3896 347.997 66.3722C347.997 64.4337 347.916 63.0003 347.692 62.2121C347.321 60.9918 346.419 60.2658 344.997 60.0596ZM344.094 68.3906C343.944 68.7487 343.866 69.0338 343.568 69.1768C343.348 69.3909 342.965 69.4619 342.445 69.529C341.921 69.6079 340.939 69.6079 339.369 69.6079C337.721 69.6079 336.667 69.6079 336.068 69.529C335.319 69.4619 334.793 69.0338 334.717 68.3906C334.571 68.0976 334.571 67.5254 334.571 66.7352C334.571 65.4439 334.646 64.5768 334.793 64.1516C334.944 63.7185 335.243 63.4314 335.694 63.3575C336.144 63.2114 337.344 63.1493 339.369 63.1493C341.171 63.1493 342.296 63.2114 342.744 63.2114C343.196 63.3575 343.569 63.5044 343.718 63.7876C343.944 64.0095 344.019 64.2907 344.094 64.7159C344.172 65.1568 344.172 65.7971 344.172 66.7352C344.172 67.5254 344.172 68.0976 344.094 68.3906ZM447.162 58.2651C447.989 58.2651 449.033 58.6232 449.94 58.6232C450.84 58.6232 451.585 58.3381 452.19 57.9721C452.19 57.9721 451.287 57.1149 450.985 56.8337C450.611 57.0478 450.015 57.2579 449.414 57.2579C448.587 57.2579 447.609 56.8337 446.784 56.8337C445.959 56.8337 445.066 57.0478 444.465 57.3309L445.657 58.5483C446.039 58.3391 446.639 58.2651 447.162 58.2651ZM325.193 64.5778H316.49V60.0596H312.512V72.7628H316.49V68.1657H325.193V72.7628H329.171V60.0596H325.193V64.5778ZM335.921 58.4101L339.294 57.688L342.669 58.4101L343.041 57.6219L339.293 55.9685L335.466 57.6219L335.921 58.4101ZM389.555 74.1902H387.747C387.452 74.1902 387.227 74.4142 387.227 74.7032V76.4237C387.227 76.7068 387.452 76.9209 387.747 76.9209H389.555C389.853 76.9209 390.08 76.7068 390.08 76.4237V74.7032C390.079 74.4132 389.853 74.1902 389.555 74.1902ZM386.027 67.6645H396.152V64.8688H386.027V63.0714H396.152V60.0596H382.274V72.7628H396.226V69.676H386.027V67.6645V67.6645ZM397.277 63.2884H402.903V72.7628H406.881V63.2884H412.498V60.0596H397.276V63.2884H397.277ZM452.416 60.0596L448.438 65.1578L444.386 60.0596H439.359L446.565 68.2387V72.7628H450.466V68.2387L457.369 60.0596H452.416V60.0596ZM385.044 57.6219L385.505 58.4101L388.876 57.688L392.253 58.4101L392.627 57.6219L388.875 55.9685L385.044 57.6219ZM428.187 68.3117L424.436 60.0596H417.457V72.7628H421.281L421.132 63.2114H421.879L426.608 72.7628H429.755L434.484 63.2114H435.162L435.085 72.7628H438.838V60.0596H431.929L428.187 68.3117ZM376.426 72.7628H380.475V60.0596H376.426V72.7628ZM367.12 69.529H366.37L361.792 60.0586H357.598L363.826 72.7618H369.672L375.825 60.0586H371.621L367.12 69.529ZM316.471 51.8529H322.162L322.958 53.3869H325.921L321.356 44.6514H317.271L312.709 53.3869H315.756L316.471 51.8529ZM319.035 46.6491H319.6L321.281 49.94H317.434L319.035 46.6491ZM367.237 53.3869L367.954 51.8529H373.725L374.44 53.3869H377.485L372.918 44.6514H368.837L364.199 53.3869H367.237ZM370.601 46.6491H371.163L372.765 49.94H368.916L370.601 46.6491ZM362.034 53.3869L366.278 44.6514H363.394L360.276 51.1672H359.79L356.591 44.6514H353.706L358.026 53.3869H362.034ZM338.411 53.3869V44.6514H335.69L335.769 51.1672H335.446L330.97 44.6514H326.321V53.3869H328.965V46.874H329.209L333.767 53.3869H338.411ZM369.565 43.3502C369.957 43.5021 370.361 43.6531 370.918 43.6531C371.565 43.6531 372.122 43.5031 372.446 43.1233C372.6 42.9674 372.764 42.6626 372.845 42.3528H372.039C371.965 42.5067 371.804 42.6626 371.639 42.7405C371.477 42.8195 371.236 42.8195 370.918 42.8195C370.523 42.8195 370.2 42.7405 370.041 42.6636C369.882 42.6636 369.803 42.5077 369.72 42.3538H368.916C369 42.8185 369.239 43.1233 369.565 43.3502ZM385.331 53.3869H389.898V44.6514H387.252V51.1672H387.014L382.452 44.6514H377.883V53.3869H380.526L380.452 46.874H380.771L385.331 53.3869ZM351.063 53.3869V44.6514H348.339V47.7165H342.337V44.6514H339.615V53.3869H342.337V50.1669H348.339V53.3869H351.063Z" fill="#222F6E"/>
<path d="M198.294 68.8593L216.725 32.1949H203.307L192.183 57.0518H192.061L181.049 32.1949H168L188.47 73.5412C191.815 71.5929 195.057 69.9957 198.294 68.8593ZM229.413 62.7726C239.584 63.1198 252.162 67.0194 261.376 68.7399C263.655 69.2006 265.687 69.5429 267.484 69.5429C271.305 69.6505 287.345 68.7399 287.345 55.3412C287.345 44.5607 268.322 46.0563 261.377 43.5437C259.818 42.9616 258.855 42.1625 258.855 41.0172C258.855 39.3047 259.817 38.2738 261.377 37.5763C262.695 37.1235 264.368 36.8887 266.042 36.8887C270.714 36.8887 273.229 38.6151 273.583 42.1625H286.035C285.439 34.1374 276.345 31.167 267.353 31.167C265.088 31.167 263.175 31.2824 261.377 31.5103C253.713 32.3064 249.635 34.8279 247.724 37.5773V32.1949H235.276V52.4764C235.276 58.6598 233.244 60.7266 226.889 60.7266C220.427 60.7266 218.514 58.6588 218.514 52.4764V37.5763L207.027 60.0321C207.027 62.3188 208.22 64.0343 211.217 65.3C216.473 63.5756 222.586 62.5506 229.413 62.7726ZM247.723 46.9806C250.242 50.751 255.863 52.0078 261.376 52.6954C268.195 53.7303 274.896 53.9552 274.896 57.6279C274.896 60.1406 272.5 61.6361 266.881 61.6361C265.087 61.6361 263.057 61.5128 261.376 60.9367C259.336 60.257 257.787 58.8808 257.787 56.016H247.723V46.9806V46.9806Z" fill="#222F6E"/>
<path fill-rule="evenodd" clip-rule="evenodd" d="M275.862 71.9421C258.379 78.8151 220.792 47.5419 180.928 87.3986H195.773C221.024 59.1175 248.806 76.4119 268.68 75.604C277.893 75.2607 282.689 68.1608 282.564 68.1608C282.451 68.1618 280.529 70.2206 275.862 71.9421ZM205.23 87.3986H218.626C220.194 84.4214 226.889 75.605 253.95 76.8608C261.732 77.211 262.572 76.8608 262.572 76.8608C262.572 76.8608 258.749 76.5234 255.517 75.9473C221.993 70.1092 208.351 83.6213 205.23 87.3986ZM227.014 87.3986H239.584C241.381 80.426 258.379 78.5813 258.379 78.5813C258.379 78.5813 235.99 77.5563 227.014 87.3986Z" fill="#770005"/>
<defs>
<filter id="filter0_d_1_310" x="0" y="0" width="1758" height="130" filterUnits="userSpaceOnUse" color-interpolation-filters="sRGB">
<feFlood flood-opacity="0" result="BackgroundImageFix"/>
<feColorMatrix in="SourceAlpha" type="matrix" values="0 0 0 0 0 0 0 0 0 0 0 0 0 0 0 0 0 0 127 0" result="hardAlpha"/>
<feOffset dy="2"/>
<feGaussianBlur stdDeviation="7.5"/>
<feComposite in2="hardAlpha" operator="out"/>
<feColorMatrix type="matrix" values="0 0 0 0 0 0 0 0 0 0 0 0 0 0 0 0 0 0 0.1 0"/>
<feBlend mode="normal" in2="BackgroundImageFix" result="effect1_dropShadow_1_310"/>
<feBlend mode="normal" in="SourceGraphic" in2="effect1_dropShadow_1_310" result="shape"/>
</filter>
</defs>
</svg>
