<svg width="53" height="53" viewBox="0 0 53 53" fill="none" xmlns="http://www.w3.org/2000/svg">
<circle cx="26.5" cy="26.2915" r="26" fill="#B9131A"/>
<path d="M35.6597 24.9592C35.6597 27.2738 34.9083 29.4119 33.6426 31.1466L40.0267 37.5358C40.6571 38.1662 40.6571 39.1898 40.0267 39.8202C39.3964 40.4505 38.3727 40.4505 37.7424 39.8202L31.3582 33.431C29.6235 34.7018 27.4854 35.4481 25.1708 35.4481C19.3766 35.4481 14.6818 30.7533 14.6818 24.9592C14.6818 19.165 19.3766 14.4702 25.1708 14.4702C30.9649 14.4702 35.6597 19.165 35.6597 24.9592ZM25.1708 32.2207C29.1798 32.2207 32.4323 28.9682 32.4323 24.9592C32.4323 20.9502 29.1798 17.6976 25.1708 17.6976C21.1618 17.6976 17.9092 20.9502 17.9092 24.9592C17.9092 28.9682 21.1618 32.2207 25.1708 32.2207Z" fill="white"/>
</svg>
