<svg width="61" height="49" viewBox="0 0 61 49" fill="none" xmlns="http://www.w3.org/2000/svg">
<g clip-path="url(#clip0_1_170)">
<path d="M30.8206 8.12031L21.6937 15.4703C20.1757 16.6891 19.8834 18.8828 21.0337 20.4484C22.25 22.1172 24.6166 22.4453 26.2477 21.1797L35.6103 13.9422C36.2703 13.4359 37.2131 13.5484 37.7317 14.2047C38.2503 14.8609 38.1277 15.7984 37.4677 16.3141L35.4971 17.8328L48.6029 29.8328V12.1328H48.5369L48.1691 11.8984L41.324 7.53906C39.8814 6.62031 38.1937 6.13281 36.4777 6.13281C34.4223 6.13281 32.4234 6.83594 30.8206 8.12031ZM32.9703 19.7828L28.0957 23.5516C25.1257 25.8578 20.8169 25.2578 18.5917 22.2203C16.4986 19.3609 17.0266 15.3672 19.7891 13.1453L27.6337 6.83594C26.54 6.37656 25.3614 6.14219 24.164 6.14219C22.3914 6.13281 20.666 6.65781 19.1857 7.63281L12.3971 12.1328V33.1328H15.056L23.6737 40.9516C25.5217 42.6297 28.3786 42.4984 30.0663 40.6609C30.5849 40.0891 30.9337 39.4234 31.1129 38.7297L32.7157 40.1922C34.5543 41.8703 37.4206 41.7484 39.1083 39.9203C39.5326 39.4609 39.8437 38.9266 40.0417 38.3734C41.8709 39.5922 44.36 39.3391 45.8969 37.6703C47.5846 35.8422 47.462 32.9922 45.6234 31.3141L32.9703 19.7828ZM1.83714 12.1328C1.00742 12.1328 0.328568 12.8078 0.328568 13.6328V33.1328C0.328568 34.7922 1.67685 36.1328 3.34571 36.1328H6.36285C8.03171 36.1328 9.38 34.7922 9.38 33.1328V12.1328H1.83714ZM4.85428 30.1328C5.25438 30.1328 5.63809 30.2908 5.921 30.5722C6.20391 30.8535 6.36285 31.235 6.36285 31.6328C6.36285 32.0306 6.20391 32.4122 5.921 32.6935C5.63809 32.9748 5.25438 33.1328 4.85428 33.1328C4.45418 33.1328 4.07047 32.9748 3.78756 32.6935C3.50465 32.4122 3.34571 32.0306 3.34571 31.6328C3.34571 31.235 3.50465 30.8535 3.78756 30.5722C4.07047 30.2908 4.45418 30.1328 4.85428 30.1328ZM51.62 12.1328V33.1328C51.62 34.7922 52.9683 36.1328 54.6371 36.1328H57.6543C59.3231 36.1328 60.6714 34.7922 60.6714 33.1328V13.6328C60.6714 12.8078 59.9926 12.1328 59.1629 12.1328H51.62ZM54.6371 31.6328C54.6371 31.235 54.7961 30.8535 55.079 30.5722C55.3619 30.2908 55.7456 30.1328 56.1457 30.1328C56.5458 30.1328 56.9295 30.2908 57.2124 30.5722C57.4953 30.8535 57.6543 31.235 57.6543 31.6328C57.6543 32.0306 57.4953 32.4122 57.2124 32.6935C56.9295 32.9748 56.5458 33.1328 56.1457 33.1328C55.7456 33.1328 55.3619 32.9748 55.079 32.6935C54.7961 32.4122 54.6371 32.0306 54.6371 31.6328Z" fill="#B9131A"/>
</g>
<defs>
<clipPath id="clip0_1_170">
<rect width="60.3429" height="48" fill="white" transform="translate(0.328568 0.132812)"/>
</clipPath>
</defs>
</svg>
