<svg width="15" height="15" viewBox="0 0 15 15" fill="none" xmlns="http://www.w3.org/2000/svg">
<g clip-path="url(#clip0_1_300)">
<path opacity="0.7" d="M7.50003 11.4916C7.92003 11.4916 8.20003 11.3516 8.48003 11.0716L14.08 5.61163C14.64 5.19163 14.64 4.35163 14.22 3.79163C14.22 3.79163 14.22 3.79163 14.08 3.65163C13.52 3.09163 12.68 3.09163 12.12 3.65163L7.50003 8.13163L2.88003 3.51163C2.32003 2.95163 1.48003 2.81163 0.920031 3.37163C0.360031 3.79163 0.220031 4.63163 0.78003 5.19163C0.78003 5.19163 0.78003 5.19163 0.78003 5.33163L0.920031 5.47163L6.52003 10.9316C6.80003 11.2116 7.22003 11.4916 7.50003 11.4916Z" fill="#4F4F4F"/>
</g>
<defs>
<clipPath id="clip0_1_300">
<rect width="14" height="14" fill="white" transform="translate(14.5 0.291504) rotate(90)"/>
</clipPath>
</defs>
</svg>
