<svg width="26" height="19" viewBox="0 0 26 19" fill="none" xmlns="http://www.w3.org/2000/svg">
<path fill-rule="evenodd" clip-rule="evenodd" d="M2.72346 17.5838C1.75408 17.2313 1.04908 16.6144 0.696576 15.6451C-0.184681 13.2657 -0.449055 3.3956 1.22533 1.45684C1.75408 0.751832 2.54722 0.399333 3.42847 0.311208C7.92288 -0.12942 21.6705 -0.129423 23.3449 0.487456C24.3142 0.839959 24.9311 1.45684 25.2836 2.33809C26.253 4.80561 26.253 13.7063 25.1955 16.0857C24.9311 16.7026 24.4024 17.1432 23.7855 17.4957C22.023 18.2888 4.9266 18.2888 2.72346 17.5838ZM9.77351 12.9132C12.4173 11.5032 15.1492 10.1813 17.7929 8.77126C15.0611 7.36125 12.4173 5.95124 9.77351 4.54123C9.77351 7.36125 9.77351 10.1813 9.77351 12.9132Z" fill="#B9131A"/>
</svg>
