<svg width="40" height="40" viewBox="0 0 40 40" fill="none" xmlns="http://www.w3.org/2000/svg">
<g clip-path="url(#clip0_1_339)">
<path d="M20 40C31.0457 40 40 31.0457 40 20C40 8.9543 31.0457 0 20 0C8.9543 0 0 8.9543 0 20C0 31.0457 8.9543 40 20 40Z" fill="white"/>
<path d="M14.6667 28.0294C14.6963 28.059 14.7259 28.059 14.7259 28.0886C14.9333 28.2368 15.1111 28.4738 15.3185 28.6516C15.9704 29.1849 16.7111 29.4812 17.5704 29.5108C19.5852 29.6294 21.3333 28.1182 21.5704 26.1331C21.5704 26.0442 21.5704 25.9257 21.5704 25.8368C21.5704 19.8516 21.5704 13.8664 21.5704 7.88121C21.5704 7.46639 21.5704 7.46639 21.9852 7.46639C22.9037 7.46639 23.7926 7.46639 24.7111 7.46639C24.8 7.46639 24.8889 7.43676 24.9778 7.49602C24.9778 7.49602 24.9778 7.49602 25.0074 7.49602C25.037 7.55528 25.0667 7.58491 25.0667 7.64417C25.4222 9.24417 26.2519 10.5479 27.5852 11.5257C27.6741 11.5849 27.7333 11.6738 27.8222 11.7331C27.8815 11.7923 27.9407 11.8219 28 11.8812C28.2074 11.9997 28.3556 12.2071 28.563 12.3553C29.3037 12.9775 30.1333 13.3923 31.0519 13.6294C31.1407 13.659 31.2296 13.659 31.2889 13.7182C31.2889 13.7182 31.2889 13.7182 31.3185 13.7182C31.3778 13.7775 31.3778 13.8368 31.3778 13.9257C31.3778 14.9923 31.3778 16.0294 31.3778 17.096C31.3778 17.3331 31.3481 17.3627 31.1111 17.3627C30.3407 17.3627 29.5704 17.2738 28.8296 17.096C27.5259 16.7997 26.3407 16.2664 25.2444 15.5553C25.1852 15.5257 25.1259 15.4368 25.0667 15.4664C24.9778 15.496 25.037 15.6145 25.037 15.6738C25.037 18.6368 25.037 21.5997 25.037 24.5923C25.037 26.6664 24.3556 28.5331 22.9926 30.1034C21.5407 31.7923 19.7037 32.7701 17.5111 33.0368C15.8222 33.2442 14.1926 32.9479 12.6815 32.1775C12.4444 32.059 12.2074 31.9108 11.9704 31.7331C11.9111 31.6738 11.8222 31.6145 11.763 31.5553C11.2296 31.1108 10.8741 30.5479 10.5185 29.9849C9.98518 29.096 9.65926 28.1479 9.48148 27.1108C9.39259 26.5182 9.33333 25.9257 9.36296 25.3627C9.48148 23.4664 10.1037 21.7775 11.3185 20.296C12.3556 19.0516 13.6296 18.1923 15.1407 17.6886C15.763 17.4812 16.4148 17.3331 17.0963 17.3034C17.2148 17.3034 17.3333 17.2738 17.4815 17.2738C17.5407 17.2738 17.6 17.2738 17.6593 17.3034C17.6593 17.3034 17.6593 17.3034 17.6889 17.3034C17.7185 17.3627 17.7185 17.4219 17.7185 17.4812C17.7185 18.5479 17.7185 19.6145 17.7185 20.6812C17.7185 20.7108 17.7185 20.7701 17.7185 20.7997C17.7185 20.9182 17.6593 20.9479 17.5704 20.9182C17.2741 20.8294 16.9778 20.7997 16.6815 20.7701C16.2074 20.7405 15.763 20.7997 15.3185 20.9775C13.837 21.5108 12.9481 22.5775 12.7704 24.1182C12.5926 25.659 13.1852 26.8738 14.4593 27.7627C14.4593 27.8812 14.5481 27.9405 14.6667 28.0294Z" fill="#B9131A"/>
<path d="M11.8815 31.7629C11.9407 31.7332 11.9704 31.7925 12 31.8221C12.9481 32.4147 13.9852 32.7999 15.0815 32.9777C15.6444 33.0666 16.2074 33.0962 16.7704 33.0666C18.6667 32.9777 20.3259 32.3555 21.8074 31.1406C23.2 29.9851 24.1481 28.5036 24.6222 26.7555C24.7704 26.1925 24.8593 25.6295 24.8889 25.0666C24.9185 24.7406 24.9185 24.4147 24.9185 24.0888C24.9185 21.2443 24.9185 18.4295 24.9185 15.5851C24.9185 15.5258 24.9185 15.4666 24.9185 15.3777C24.9778 15.348 25.037 15.4073 25.0667 15.4369C26.0741 16.1184 27.1704 16.6518 28.3556 16.948C29.0074 17.1258 29.6593 17.2443 30.3407 17.3036C30.6074 17.3332 30.9037 17.3332 31.1704 17.3332C31.2889 17.3332 31.2889 17.3332 31.2889 17.2147C31.2889 17.0666 31.2889 16.948 31.2889 16.7999C31.2889 15.8518 31.2889 14.874 31.2889 13.9258C31.2889 13.8666 31.2889 13.8073 31.2889 13.748C31.5556 13.7777 31.7926 13.8369 32.0296 13.8369C32.1778 13.8369 32.3556 13.8666 32.5037 13.8666C32.5926 13.8666 32.6222 13.8962 32.5926 13.9555C32.5926 13.9851 32.5926 14.0147 32.5926 14.0443C32.5926 15.4369 32.5926 16.7999 32.5926 18.1925C32.5926 18.2221 32.5926 18.2518 32.5926 18.2814C32.5926 18.3999 32.5926 18.3999 32.4741 18.3999C32.0296 18.3999 31.6148 18.3703 31.1704 18.311C30.2815 18.1925 29.4518 17.9851 28.6222 17.6592C27.8222 17.3629 27.0815 16.948 26.4 16.474C26.3704 16.4443 26.3111 16.4147 26.2518 16.3851C26.2518 16.474 26.2518 16.5332 26.2518 16.5925C26.2518 19.6147 26.2518 22.6369 26.2518 25.6592C26.2518 27.2592 25.837 28.7703 24.9778 30.1332C23.9407 31.7925 22.4889 32.948 20.6518 33.5999C19.5259 34.0147 18.4 34.1629 17.2148 34.074C15.2296 33.9258 13.4815 33.1555 12.0296 31.8221C11.9704 31.8518 11.9407 31.7925 11.8815 31.7629Z" fill="#770005"/>
<path d="M24.9481 7.52599C24.8889 7.52599 24.8296 7.52599 24.7704 7.52599C23.7926 7.52599 22.8148 7.52599 21.837 7.52599C21.6 7.52599 21.6 7.52599 21.6 7.73339C21.6 13.6889 21.6 19.6445 21.6 25.6001C21.6 26.0149 21.5704 26.4297 21.4518 26.8149C21.0074 28.2075 20.0593 29.126 18.637 29.4519C17.0963 29.8075 15.7926 29.3334 14.7556 28.1482C14.7259 28.1186 14.7259 28.089 14.7259 28.089C15.0222 28.2075 15.3185 28.326 15.6444 28.3852C16.6518 28.5927 17.5704 28.4445 18.4593 27.8815C19.4667 27.2593 20.0593 26.3704 20.2667 25.2149C20.2963 25.0075 20.3259 24.7704 20.3259 24.563C20.3259 18.6075 20.3259 12.6519 20.3259 6.66673C20.3259 6.40006 20.2963 6.42969 20.563 6.42969C21.9259 6.42969 23.3185 6.42969 24.6815 6.42969C24.7111 6.42969 24.7407 6.42969 24.7704 6.42969C24.9185 6.42969 24.9185 6.42969 24.9185 6.57784C24.8889 6.90376 24.8889 7.22969 24.9481 7.52599Z" fill="#6ABAC5"/>
<path d="M17.6 17.3036C16.7704 17.3332 15.9407 17.4517 15.1407 17.7184C13.9852 18.1036 12.9481 18.6962 12.0593 19.5258C10.8741 20.5925 10.0741 21.9258 9.65926 23.4369C9.51111 23.9703 9.42222 24.5332 9.36296 25.0962C9.33333 25.4221 9.33333 25.7777 9.36296 26.1036C9.42222 27.0517 9.6 27.9703 9.95555 28.8295C10.3704 29.8073 10.9037 30.6962 11.6444 31.4666C11.6444 31.4962 11.6741 31.4962 11.6741 31.5258C11.4963 31.4666 11.3778 31.348 11.2296 31.2295C9.86666 30.1629 8.91852 28.7999 8.38518 27.111C8.2074 26.5184 8.08889 25.9554 8.02963 25.3332C8 24.8888 7.97037 24.4443 8 24.0295C8.05926 23.0221 8.29629 22.0443 8.71111 21.1258C9.15555 20.1777 9.74815 19.3184 10.4889 18.5777C11.3778 17.7184 12.3852 17.0666 13.5407 16.6517C14.2815 16.3851 15.0222 16.2369 15.7926 16.1777C16.3556 16.148 16.9185 16.148 17.4518 16.2073C17.5407 16.2073 17.5704 16.2369 17.5704 16.3258C17.6 16.6814 17.6 17.0073 17.6 17.3036Z" fill="#6ABAC5"/>
<path d="M14.6667 28.0292C14.3407 27.8811 14.0444 27.644 13.7778 27.407C13.0963 26.7551 12.7111 25.9848 12.6222 25.0662C12.4148 23.1403 13.6296 21.4811 15.3185 20.9477C16.0296 20.7403 16.7704 20.7107 17.4815 20.9181C17.5111 20.9181 17.5704 20.9477 17.6 20.9477C17.6296 20.8885 17.6 20.8292 17.6 20.7699C17.6 19.6737 17.6 18.607 17.6 17.5107C17.6 17.4514 17.6 17.3922 17.6 17.3329C18.0148 17.3033 18.4296 17.3329 18.8444 17.3922C18.9037 17.3922 18.9333 17.4218 18.9333 17.4811C18.9333 17.5107 18.9333 17.5403 18.9333 17.5699C18.9333 18.9922 18.9333 20.444 18.9333 21.8662C18.9333 21.9255 18.9333 21.9848 18.9037 22.044C18.7259 22.0144 18.5185 21.9551 18.3407 21.9255C17.2444 21.7774 16.237 22.044 15.3481 22.7255C14.5778 23.3181 14.1037 24.1181 13.9556 25.0959C13.7778 26.1329 13.9852 27.0811 14.5778 27.9403C14.6074 27.9403 14.637 27.9996 14.6667 28.0292Z" fill="#770005"/>
<path d="M27.7926 11.7626C27.3778 11.5255 27.0222 11.1996 26.6667 10.8737C25.7778 9.95516 25.1852 8.85886 24.9481 7.58479V7.55516C25.3333 7.52553 25.7185 7.55516 26.1037 7.55516C26.163 7.55516 26.1926 7.58479 26.1926 7.64405C26.1926 7.67368 26.1926 7.70331 26.1926 7.73294C26.163 8.82924 26.4889 9.80701 27.0222 10.7552C27.2 11.0811 27.437 11.407 27.6741 11.7033C27.763 11.7033 27.7926 11.7329 27.7926 11.7626Z" fill="#770005"/>
<path d="M31.2593 13.7775C30.163 13.5404 29.1852 13.0367 28.3259 12.296C28.2074 12.1775 28.0593 12.0886 27.9704 11.9404C28 11.9404 28.0296 11.9701 28.0593 11.9701C28.7407 12.3552 29.4518 12.5923 30.2222 12.7404C30.5185 12.7997 30.8148 12.8293 31.1111 12.8293C31.2296 12.8293 31.2296 12.8293 31.2296 12.9478C31.2593 13.2145 31.2593 13.4812 31.2593 13.7775Z" fill="#6ABAC5"/>
</g>
<defs>
<clipPath id="clip0_1_339">
<rect width="40" height="40" fill="white"/>
</clipPath>
</defs>
</svg>
