<svg width="23" height="24" viewBox="0 0 23 24" fill="none" xmlns="http://www.w3.org/2000/svg">
<path d="M0.330658 2.52006C0.330658 1.46213 1.03453 0.607422 1.90575 0.607422H20.8068C21.6781 0.607422 22.3819 1.46213 22.3819 2.52006C22.3819 3.57799 21.6781 4.4327 20.8068 4.4327H1.90575C1.03453 4.4327 0.330658 3.57799 0.330658 2.52006ZM0.330658 12.0833C0.330658 11.0253 1.03453 10.1706 1.90575 10.1706H20.8068C21.6781 10.1706 22.3819 11.0253 22.3819 12.0833C22.3819 13.1412 21.6781 13.9959 20.8068 13.9959H1.90575C1.03453 13.9959 0.330658 13.1412 0.330658 12.0833ZM22.3819 21.6464C22.3819 22.7044 21.6781 23.5591 20.8068 23.5591H1.90575C1.03453 23.5591 0.330658 22.7044 0.330658 21.6464C0.330658 20.5885 1.03453 19.7338 1.90575 19.7338H20.8068C21.6781 19.7338 22.3819 20.5885 22.3819 21.6464Z" fill="#666666"/>
</svg>
