<svg width="73" height="84" viewBox="0 0 73 84" fill="none" xmlns="http://www.w3.org/2000/svg">
<g filter="url(#filter0_d_1_1796)">
<g filter="url(#filter1_d_1_1796)">
<circle cx="36.5" cy="32.166" r="21" fill="#FEFEFE"/>
</g>
</g>
<path d="M36.1747 42.4186C36.5652 42.8091 37.1984 42.8091 37.5889 42.4186L43.9529 36.0546C44.3434 35.6641 44.3434 35.0309 43.9529 34.6404C43.5624 34.2499 42.9292 34.2499 42.5387 34.6404L36.8818 40.2972L31.225 34.6404C30.8344 34.2499 30.2013 34.2499 29.8108 34.6404C29.4202 35.0309 29.4202 35.6641 29.8108 36.0546L36.1747 42.4186ZM35.8818 22.6205L35.8818 41.7115L37.8818 41.7115L37.8818 22.6205L35.8818 22.6205Z" fill="#5F5F5F"/>
<defs>
<filter id="filter0_d_1_1796" x="0.5" y="0.166016" width="72" height="72" filterUnits="userSpaceOnUse" color-interpolation-filters="sRGB">
<feFlood flood-opacity="0" result="BackgroundImageFix"/>
<feColorMatrix in="SourceAlpha" type="matrix" values="0 0 0 0 0 0 0 0 0 0 0 0 0 0 0 0 0 0 127 0" result="hardAlpha"/>
<feOffset dy="4"/>
<feGaussianBlur stdDeviation="7.5"/>
<feComposite in2="hardAlpha" operator="out"/>
<feColorMatrix type="matrix" values="0 0 0 0 0 0 0 0 0 0 0 0 0 0 0 0 0 0 0.1 0"/>
<feBlend mode="normal" in2="BackgroundImageFix" result="effect1_dropShadow_1_1796"/>
<feBlend mode="normal" in="SourceGraphic" in2="effect1_dropShadow_1_1796" result="shape"/>
</filter>
<filter id="filter1_d_1_1796" x="0.5" y="11.166" width="72" height="72" filterUnits="userSpaceOnUse" color-interpolation-filters="sRGB">
<feFlood flood-opacity="0" result="BackgroundImageFix"/>
<feColorMatrix in="SourceAlpha" type="matrix" values="0 0 0 0 0 0 0 0 0 0 0 0 0 0 0 0 0 0 127 0" result="hardAlpha"/>
<feMorphology radius="15" operator="erode" in="SourceAlpha" result="effect1_dropShadow_1_1796"/>
<feOffset dy="15"/>
<feGaussianBlur stdDeviation="15"/>
<feComposite in2="hardAlpha" operator="out"/>
<feColorMatrix type="matrix" values="0 0 0 0 0 0 0 0 0 0 0 0 0 0 0 0 0 0 0.25 0"/>
<feBlend mode="normal" in2="BackgroundImageFix" result="effect1_dropShadow_1_1796"/>
<feBlend mode="normal" in="SourceGraphic" in2="effect1_dropShadow_1_1796" result="shape"/>
</filter>
</defs>
</svg>
