<svg width="40" height="40" viewBox="0 0 40 40" fill="none" xmlns="http://www.w3.org/2000/svg">
<path d="M20 40C31.0457 40 40 31.0457 40 20C40 8.95431 31.0457 0 20 0C8.95431 0 0 8.95431 0 20C0 31.0457 8.95431 40 20 40Z" fill="white"/>
<path d="M10.4 15.8398H14.8V29.9198H10.4V15.8398ZM12.64 8.7998C14.08 8.7998 15.2 9.9198 15.2 11.3598C15.2 12.7998 14.08 13.9198 12.64 13.9198C11.2 13.9198 10.08 12.7998 10.08 11.3598C10.08 9.9198 11.2 8.7998 12.64 8.7998Z" fill="#B9131A"/>
<path d="M17.6 15.8395H21.76V17.7595H21.84C22.4 16.6395 23.84 15.5195 26 15.5195C30.4 15.5195 31.28 18.3995 31.28 22.2395V29.9995H26.88V23.1195C26.88 21.5195 26.88 19.3595 24.64 19.3595C22.4 19.3595 22 21.1195 22 22.9595V29.9195H17.6V15.8395V15.8395Z" fill="#B9131A"/>
</svg>
