<svg width="108" height="53" viewBox="0 0 108 53" fill="none" xmlns="http://www.w3.org/2000/svg">
<path d="M27.5308 35.431L44.0311 1.56282H32.0186L22.0601 24.524H21.9508L12.0925 1.56282H0.410629L18.7364 39.7559C21.7304 37.9561 24.6333 36.4808 27.5308 35.431ZM55.3896 29.8085C64.4946 30.1292 75.7557 33.7315 84.0036 35.3207C86.0439 35.7463 87.8629 36.0625 89.4724 36.0625C92.8927 36.1618 107.253 35.3207 107.253 22.9439C107.253 12.9856 90.2221 14.367 84.0045 12.046C82.609 11.5084 81.7474 10.7703 81.7474 9.71229C81.7474 8.13033 82.6081 7.17805 84.0045 6.53379C85.185 6.11552 86.6824 5.89863 88.1808 5.89863C92.3635 5.89863 94.6152 7.49335 94.9322 10.7703H106.079C105.546 3.35711 97.4052 0.613281 89.3549 0.613281C87.3273 0.613281 85.6149 0.7199 84.0045 0.930402C77.1438 1.6658 73.4931 3.995 71.7825 6.5347V1.56282H60.638V20.2976C60.638 26.0094 58.819 27.9185 53.1298 27.9185C47.3448 27.9185 45.6324 26.0085 45.6324 20.2976V6.53379L35.3487 27.277C35.3487 29.3893 36.4172 30.974 39.0997 32.1431C43.8052 30.5502 49.2777 29.6034 55.3896 29.8085ZM71.7816 15.2209C74.0369 18.7038 79.0685 19.8647 84.0036 20.4999C90.1082 21.4558 96.1072 21.6636 96.1072 25.0562C96.1072 27.3772 93.963 28.7587 88.9323 28.7587C87.3264 28.7587 85.5092 28.6448 84.0036 28.1126C82.1773 27.4847 80.791 26.2135 80.791 23.5672H71.7816V15.2209V15.2209Z" fill="white"/>
<path fill-rule="evenodd" clip-rule="evenodd" d="M96.9725 38.2786C81.3211 44.6274 47.6719 15.7393 11.9841 52.5564H25.2736C47.8795 26.4321 72.7507 42.4076 90.5427 41.6612C98.7906 41.3441 103.084 34.7857 102.972 34.7857C102.871 34.7866 101.151 36.6885 96.9725 38.2786ZM33.7401 52.5564H45.7326C47.1363 49.8062 53.1298 41.6622 77.3561 42.8222C84.3224 43.1457 85.0748 42.8222 85.0748 42.8222C85.0748 42.8222 81.6517 42.5106 78.7588 41.9784C48.7467 36.5855 36.5338 49.0671 33.7401 52.5564ZM53.2418 52.5564H64.4947C66.1042 46.1155 81.3211 44.4115 81.3211 44.4115C81.3211 44.4115 61.2775 43.4646 53.2418 52.5564Z" fill="white"/>
</svg>
