<svg width="12" height="22" viewBox="0 0 12 22" fill="none" xmlns="http://www.w3.org/2000/svg">
<path fill-rule="evenodd" clip-rule="evenodd" d="M7.68528 5.72042C7.68528 6.56509 7.63249 8.4656 7.63249 8.4656C7.63249 8.4656 9.74416 8.4656 10.6944 8.4656H11.4335C11.2751 9.7854 11.1168 11.0524 10.9584 12.3194H7.68528V21.0301C6.68223 21.294 5.67919 21.3996 4.57056 21.3996C4.25381 21.3996 3.98985 21.3996 3.6731 21.3468V12.2666H0.400002V8.41281H3.6731V8.14885C3.6731 7.35697 3.6731 6.61788 3.6731 5.82601C3.6731 5.35088 3.72589 4.82296 3.77868 4.34783C3.98985 3.18641 4.51777 2.18337 5.52081 1.49707C6.36548 0.863569 7.36853 0.652401 8.37157 0.599609C9.05787 0.599609 9.74416 0.59961 10.3777 0.652401C10.7472 0.652401 11.1168 0.705193 11.4863 0.757985V4.18946H11.2223C10.536 4.18946 9.90254 4.18946 9.26904 4.18946C8.37158 4.24225 7.73807 4.61179 7.68528 5.72042Z" fill="#B9131A"/>
</svg>
