<svg width="30" height="31" viewBox="0 0 30 31" fill="none" xmlns="http://www.w3.org/2000/svg">
<circle cx="15" cy="15.3271" r="15" fill="#B9131A"/>
<path d="M20.284 14.5581C20.284 15.8935 19.8505 17.127 19.1203 18.1278L22.8034 21.8139C23.1671 22.1776 23.1671 22.7682 22.8034 23.1318C22.4398 23.4955 21.8492 23.4955 21.4855 23.1318L17.8024 19.4457C16.8016 20.1789 15.568 20.6095 14.2327 20.6095C10.8899 20.6095 8.18136 17.9009 8.18136 14.5581C8.18136 11.2154 10.8899 8.50684 14.2327 8.50684C17.5754 8.50684 20.284 11.2154 20.284 14.5581ZM14.2327 18.7475C16.5456 18.7475 18.422 16.871 18.422 14.5581C18.422 12.2453 16.5456 10.3688 14.2327 10.3688C11.9198 10.3688 10.0433 12.2453 10.0433 14.5581C10.0433 16.871 11.9198 18.7475 14.2327 18.7475Z" fill="white"/>
</svg>
