<svg width="40" height="40" viewBox="0 0 40 40" fill="none" xmlns="http://www.w3.org/2000/svg">
<circle cx="20" cy="20" r="20" fill="white"/>
<path d="M8.45414 23.3893C9.92901 23.3893 11.3175 23.3803 12.6953 23.3893C13.4669 23.3983 13.8878 23.7232 13.9651 24.3403C14.0532 25.1144 13.6036 25.6341 12.7636 25.6449C11.1809 25.6648 9.60706 25.654 8.02427 25.654C7.56562 25.654 7.11597 25.6738 6.65552 25.6449C6.08896 25.6161 5.53138 25.4988 5.25799 24.9105C4.9846 24.3223 5.18065 23.7935 5.55117 23.3117C7.05661 21.3899 8.57105 19.4591 10.0855 17.5373C10.1736 17.4201 10.2618 17.3028 10.3499 17.1945C10.2528 17.0285 10.1161 17.1061 9.99736 17.0971C8.94157 17.088 7.87679 17.0971 6.821 17.088C6.57638 17.088 6.33177 17.0592 6.09795 17.0104C5.54038 16.8823 5.19864 16.3247 5.32634 15.7744C5.41447 15.4026 5.70765 15.0977 6.07817 15.0092C6.31199 14.9497 6.5566 14.9208 6.80121 14.9208C8.54048 14.9118 10.2905 14.9118 12.0298 14.9208C12.3428 14.9118 12.6449 14.9497 12.9489 15.0291C13.6126 15.2547 13.8968 15.8718 13.6324 16.5196C13.3986 17.079 13.0262 17.559 12.6557 18.039C11.3751 19.6757 10.0963 21.3033 8.81567 22.922C8.70775 23.0465 8.61062 23.1746 8.45414 23.3893Z" fill="#B9131A"/>
<path d="M19.789 18.2324C20.0228 17.9292 20.2674 17.6441 20.6685 17.5665C21.4401 17.4095 22.1632 17.9094 22.174 18.6943C22.2028 20.6558 22.1938 22.6155 22.174 24.577C22.174 25.0876 21.8412 25.537 21.3628 25.6849C20.8736 25.8708 20.3178 25.7246 19.9941 25.3024C19.8286 25.0967 19.7602 25.057 19.5246 25.2428C18.6361 25.9682 17.6289 26.0964 16.5443 25.7427C14.805 25.1743 14.091 23.8119 13.8967 22.1553C13.6917 20.3617 14.287 18.8315 15.8896 17.8913C17.2188 17.0955 18.5677 17.1641 19.789 18.2324ZM16.3303 21.8107C16.35 22.242 16.4867 22.6534 16.7403 22.9962C17.2673 23.7018 18.2746 23.8498 18.9886 23.3192C19.1055 23.2308 19.2135 23.1225 19.3106 22.9962C19.8574 22.251 19.8574 21.0257 19.3106 20.2805C19.0372 19.8979 18.6073 19.6724 18.1469 19.6633C17.0731 19.5966 16.3195 20.4284 16.3303 21.8107ZM26.5608 21.8702C26.4835 19.3512 28.1346 17.4691 30.48 17.4005C32.9711 17.3229 34.7895 18.9993 34.8668 21.4498C34.9442 23.931 33.4297 25.6849 31.0951 25.9195C28.5447 26.174 26.5212 24.3207 26.5608 21.8702ZM29.0141 21.6356C28.9943 22.1265 29.1418 22.6065 29.435 23.0089C29.9728 23.7144 30.9782 23.8516 31.6833 23.303C31.7912 23.2254 31.8793 23.1262 31.9675 23.0287C32.534 22.2835 32.534 21.0293 31.9765 20.2841C31.7031 19.9124 31.2732 19.676 30.8128 19.6669C29.757 19.6056 29.0141 20.4104 29.0141 21.6356ZM25.7011 19.9196C25.7011 21.439 25.7101 22.9583 25.7011 24.4777C25.7101 25.1743 25.1633 25.7517 24.469 25.7715C24.3521 25.7715 24.2244 25.7625 24.1075 25.7318C23.6183 25.6037 23.2478 25.084 23.2478 24.4669V16.6751C23.2478 16.2149 23.2388 15.7638 23.2478 15.3019C23.2567 14.5476 23.737 14.0568 24.46 14.0568C25.2029 14.0477 25.7011 14.5368 25.7011 15.3217C25.7101 16.8501 25.7011 18.3894 25.7011 19.9196Z" fill="#B9131A"/>
</svg>
