<svg width="22" height="16" viewBox="0 0 22 16" fill="none" xmlns="http://www.w3.org/2000/svg">
<path fill-rule="evenodd" clip-rule="evenodd" d="M2.77877 14.8669C2.00326 14.5849 1.43926 14.0914 1.15726 13.3159C0.452254 11.4123 0.240754 3.51628 1.58026 1.96527C2.00327 1.40127 2.63777 1.11927 3.34278 1.04877C6.9383 0.696268 17.9364 0.696266 19.2759 1.18977C20.0514 1.47177 20.5449 1.96527 20.8269 2.67028C21.6024 4.64429 21.6024 11.7648 20.7564 13.6684C20.5449 14.1619 20.1219 14.5144 19.6284 14.7964C18.2184 15.4309 4.54128 15.4309 2.77877 14.8669ZM8.41881 11.1303C10.5338 10.0023 12.7193 8.94482 14.8344 7.81682C12.6488 6.68881 10.5338 5.5608 8.41881 4.43279C8.41881 6.68881 8.41881 8.94482 8.41881 11.1303Z" fill="#B9131A"/>
</svg>
